<svg width="63" height="57" viewBox="0 0 63 57" fill="none" xmlns="http://www.w3.org/2000/svg">
<path d="M31.5059 56.8548C22.323 56.8548 13.1427 56.8548 3.96515 56.8548C1.47105 56.8507 0.0240717 55.3837 0.0240717 52.907C0.0240717 36.6185 0.0494808 20.3272 0 4.04138C0 1.6877 1.66095 0 4.02533 0C22.3626 0.0427942 40.7008 0.0481435 59.0399 0.0160478C60.6661 0.0160478 61.9165 0.612492 62.6173 2.0929C62.8556 2.64105 62.9742 3.23377 62.965 3.83142C62.9837 18.8941 62.989 33.9567 62.981 49.0194C62.981 50.3126 62.9141 51.6085 62.993 52.8976C63.1268 55.1711 61.3134 56.8869 59.0466 56.8721C49.8673 56.816 40.6866 56.8494 31.5059 56.8494V56.8548ZM2.07686 11.7055V40.8243C2.07686 44.9023 2.07686 48.9802 2.07686 53.0581C2.07686 54.2202 2.6412 54.7752 3.79531 54.7899C3.97451 54.7899 4.15237 54.7899 4.33024 54.7899H58.9543C60.4254 54.7899 60.9282 54.2938 60.9282 52.8375V11.7055H2.07686ZM2.07686 9.54846H60.9189C60.9189 7.67621 60.9189 5.84943 60.9189 4.02399C60.9189 2.59306 60.4147 2.08488 59.0052 2.08488H15.4086C11.5304 2.08488 7.65214 2.08488 3.77391 2.08488C2.77627 2.08488 2.0929 2.61981 2.07819 3.49441C2.05947 5.49638 2.0822 7.49968 2.0822 9.54846H2.07686Z" fill="#2E3844"/>
<path d="M58.8552 28.0448H4.14551V15.1277H58.8552V28.0448ZM6.2237 26.0094H56.8051V17.1751H6.2237V26.0094Z" fill="#2A6EDB"/>
<path d="M4.15625 31.5793H20.5143V43.8118H4.15625V31.5793ZM6.24648 33.6549V41.7617H18.4629V33.6549H6.24648Z" fill="#2E3844"/>
<path d="M23.3418 43.836V31.5889H39.6905V43.836H23.3418ZM37.6217 41.7926V33.6737H25.3959V41.7926H37.6217Z" fill="#2E3844"/>
<path d="M58.878 31.5928V43.8292H42.5186V31.5928H58.878ZM56.8051 41.7938V33.6736H44.562V41.7938H56.8051Z" fill="#2E3844"/>
<path d="M4.1543 47.2287V45.2468H16.3533V47.2287H4.1543Z" fill="#2E3844"/>
<path d="M54.7061 45.2537V47.2396H42.5098V45.2537H54.7061Z" fill="#2E3844"/>
<path d="M35.5251 45.2629V47.2234H23.3555V45.2629H35.5251Z" fill="#2E3844"/>
<path d="M10.9384 48.6785V50.643H4.1582V48.6785H10.9384Z" fill="#2E3844"/>
<path d="M30.1257 48.6785V50.6403H23.3535V48.6785H30.1257Z" fill="#2E3844"/>
<path d="M42.5059 50.6389V48.6704H49.274V50.6389H42.5059Z" fill="#2E3844"/>
<path d="M54.7838 5.54182C54.7885 5.72595 54.7562 5.90915 54.6888 6.08057C54.6214 6.25199 54.5203 6.40815 54.3915 6.53982C54.2627 6.67148 54.1088 6.77598 53.9389 6.84713C53.769 6.91828 53.5866 6.95463 53.4024 6.95403C53.2183 6.95919 53.035 6.92791 52.863 6.862C52.6911 6.79608 52.5339 6.69682 52.4004 6.56994C52.2669 6.44305 52.1598 6.29104 52.0853 6.12263C52.0108 5.95422 51.9703 5.77274 51.9661 5.58863C51.9581 5.40058 51.9879 5.21285 52.0537 5.03649C52.1194 4.86013 52.2198 4.69873 52.349 4.56181C52.4781 4.42488 52.6334 4.31521 52.8056 4.23926C52.9778 4.1633 53.1634 4.12261 53.3516 4.11957C53.5398 4.11653 53.7267 4.15122 53.9013 4.22157C54.0759 4.29193 54.2346 4.39654 54.3681 4.52923C54.5015 4.66191 54.6071 4.81999 54.6785 4.99413C54.7499 5.16828 54.7857 5.35496 54.7838 5.54316V5.54182Z" fill="#2E3844"/>
<path d="M47.2742 5.49369C47.2768 5.30394 47.3176 5.11666 47.3941 4.94303C47.4707 4.7694 47.5814 4.61298 47.7198 4.48311C47.8582 4.35324 48.0213 4.25259 48.1994 4.18717C48.3775 4.12175 48.567 4.09289 48.7565 4.10233C48.9461 4.11177 49.1317 4.15932 49.3025 4.24212C49.4732 4.32492 49.6255 4.44128 49.7503 4.58425C49.8751 4.72723 49.9698 4.89388 50.0287 5.07426C50.0876 5.25464 50.1096 5.44505 50.0933 5.6341C50.0747 6.00794 49.9083 6.35906 49.6308 6.61023C49.3533 6.8614 48.9874 6.99205 48.6135 6.97343C48.2397 6.95481 47.8886 6.78845 47.6374 6.51094C47.3862 6.23344 47.2556 5.86752 47.2742 5.49369Z" fill="#2E3844"/>
<path d="M57.4938 6.9541C57.3098 6.95839 57.1268 6.92575 56.9556 6.85811C56.7844 6.79048 56.6285 6.68922 56.4971 6.56031C56.3657 6.43141 56.2615 6.27747 56.1906 6.1076C56.1197 5.93773 56.0835 5.75538 56.0843 5.57131C56.0766 5.20018 56.215 4.84089 56.4696 4.57077C56.7243 4.30065 57.0747 4.1413 57.4457 4.127C57.8286 4.12379 58.1973 4.2724 58.471 4.54031C58.7447 4.80823 58.9011 5.17364 58.906 5.5566C58.9011 5.92825 58.7503 6.28308 58.4861 6.54453C58.2219 6.80597 57.8655 6.95307 57.4938 6.9541Z" fill="#2E3844"/>
</svg>
