<svg width="65" height="56" viewBox="0 0 65 56" fill="none" xmlns="http://www.w3.org/2000/svg">
<path d="M53.7747 48.8312C52.8072 51.5804 52.8072 51.5804 51.2652 53.1914H57.15V55.3523H5.82274V53.2214H15.5424C13.8152 51.5076 13.1772 50.5821 13.0216 47.6986C11.5519 47.6986 10.0764 47.7072 8.59959 47.6986C6.85115 47.6844 5.47051 46.5432 5.29368 44.8137C5.24322 44.1316 5.37565 43.4483 5.67704 42.8357C6.61209 40.9433 7.65747 39.1109 8.64769 37.2429C8.8429 36.8701 9.08621 36.703 9.48372 36.7744C10.1613 36.8973 10.5517 36.5802 10.8983 36.0104C11.5504 34.9392 12.2832 33.9195 13.0542 32.7698H5.82274V30.549H6.55974C9.05792 30.549 11.5575 30.5575 14.0571 30.5347C14.3511 30.5325 14.6361 30.432 14.8677 30.2491C15.6965 29.4885 16.7792 29.0718 17.8992 29.0822C25.8662 29.0822 33.8351 29.0822 41.8058 29.0822C43.5727 29.0822 44.9788 29.8263 46.085 31.2074C47.5364 33.0212 49.0175 34.8093 50.4632 36.6345C50.5848 36.8038 50.7473 36.9389 50.9352 37.0269C51.1231 37.1149 51.3303 37.1529 51.5368 37.1372C53.9888 37.1153 56.4408 37.1129 58.8927 37.1301C62.1025 37.1472 64.1055 40.0064 63.063 43.0827C62.4844 44.7966 61.8606 46.4832 61.2947 48.1956C61.1363 48.6741 60.9241 48.8555 60.405 48.8455C58.4245 48.8112 56.4441 48.8312 54.4636 48.8298L53.7747 48.8312ZM41.2725 39.3038H27.1931C21.679 39.3038 16.162 39.3076 10.6423 39.3152C10.3919 39.3152 10.017 39.3809 9.91234 39.5508C9.42147 40.3492 9.00558 41.1947 8.49774 42.1516H10.8106V44.3638H7.4764C7.5825 45.2136 7.87108 45.4878 8.69154 45.4964C10.1995 45.5107 11.7089 45.5178 13.2183 45.4792C13.3573 45.4649 13.4919 45.4217 13.6136 45.3524C13.7353 45.2831 13.8415 45.1892 13.9256 45.0765C15.2864 42.9699 17.2117 41.9345 19.6702 42.1687C22.1288 42.4029 23.8334 43.8054 24.7345 46.1448C24.8618 46.4761 25.0174 46.6275 25.3866 46.6261C30.7126 46.6146 36.0399 46.6261 41.3716 46.5989C41.5056 46.5786 41.6331 46.5271 41.744 46.4485C41.855 46.37 41.9463 46.2665 42.011 46.1462C43.0917 43.6169 45.2122 42.1116 47.7415 42.1273C50.2708 42.143 52.329 43.6326 53.3787 46.1548C53.4621 46.3533 53.7521 46.5932 53.9445 46.5961C55.6632 46.6318 57.3848 46.6246 59.1049 46.6061C59.2761 46.6061 59.5406 46.4718 59.5986 46.3319C59.8448 45.732 60.0301 45.1065 60.2677 44.4038H57.2546V42.2558H60.9934C61.5593 40.7391 60.528 39.3252 58.8843 39.3137C56.0805 39.2928 53.2759 39.2928 50.4702 39.3137C50.2638 39.3269 50.0574 39.2866 49.8708 39.1966C49.6841 39.1066 49.5233 38.97 49.4036 38.7996C47.733 36.7059 46.0298 34.6393 44.3549 32.5499C44.0397 32.1318 43.6293 31.7966 43.1585 31.5729C42.6876 31.3491 42.1702 31.2433 41.6502 31.2645C40.3078 31.2788 38.9625 31.2645 37.62 31.2645C37.3965 31.2645 37.1716 31.2902 36.958 31.3031V37.14H41.2725V39.3038ZM34.7215 31.3059C34.5546 31.2945 34.4202 31.2745 34.2844 31.2745C28.8146 31.2745 23.3486 31.2745 17.8864 31.2745C17.0532 31.2745 16.4464 31.6587 15.9866 32.3199C15.5269 32.9812 15.0586 33.6938 14.5975 34.3837C14.0048 35.2591 13.4262 36.1332 12.7981 37.0786H34.7244L34.7215 31.3059ZM44.2121 53.17C42.6801 51.9789 41.9487 50.5307 41.6658 48.8283C36.2295 48.8283 30.8625 48.8283 25.497 48.8498C25.33 48.8498 25.0627 49.1468 25.0174 49.3453C24.7824 50.4916 24.2363 51.5493 23.4401 52.4002C23.211 52.643 22.9719 52.8772 22.6805 53.1729L44.2121 53.17ZM47.6835 44.4338C45.5998 44.4124 43.8429 46.1276 43.8358 48.1899C43.8459 49.212 44.2475 50.1904 44.9564 50.9202C45.6652 51.6499 46.6263 52.0744 47.6382 52.1046C49.6568 52.1446 51.5213 50.3579 51.5397 48.367C51.5581 46.2462 49.8054 44.4581 47.6835 44.4367V44.4338ZM15.2411 48.1985C15.2478 49.2324 15.6573 50.2221 16.381 50.9536C17.1047 51.6851 18.0846 52.0996 19.1086 52.1074C21.1202 52.0946 22.9068 50.3379 22.9167 48.3627C22.9209 47.3273 22.5184 46.3325 21.7975 45.5961C21.0766 44.8597 20.096 44.4417 19.0704 44.4338C16.9754 44.4167 15.2454 46.1305 15.2411 48.1985Z" fill="#2E3844"/>
<path d="M22.3339 22.4356C21.7851 14.862 26.0529 5.53448 35.5067 1.60411C44.4399 -2.10918 54.6999 0.781472 60.545 8.64935C66.3901 16.5172 65.9007 26.8887 60.828 33.8726L54.9517 29.935L56.1386 28.107L60.1985 30.8105C61.607 28.2707 62.4105 25.4347 62.5453 22.527H57.9832V20.3062H62.4646C62.5877 16.8271 60.603 11.6614 57.6451 8.59508L54.6037 11.7114L53.0477 10.0247L56.0862 7.01265C52.8327 4.19341 49.1717 2.64954 44.9109 2.26393V6.34854H42.7211V2.24251C38.2906 2.46388 34.5066 4.01631 31.1794 6.8127L34.3863 9.99756L32.7143 11.5029L29.6502 8.28374C26.5098 11.7542 24.8166 15.6603 24.4714 20.2577H28.8849V22.4371L22.3339 22.4356Z" fill="#2A6EDB"/>
<path d="M42.7109 10.8428H44.8993V11.6483C44.8993 14.1476 44.9276 16.6469 44.8993 19.1434C44.8922 19.7232 45.086 19.9675 45.6066 20.1731C47.4003 20.8872 49.1714 21.6599 50.9509 22.4125C51.1645 22.5025 51.3753 22.6025 51.6342 22.7196L50.8165 24.719C50.1856 24.4605 49.5844 24.2177 48.9776 23.9664C47.0664 23.1637 45.1582 22.3668 43.2513 21.5385C43.0348 21.4442 42.7392 21.1828 42.7364 20.9957C42.7024 17.6424 42.7109 14.2918 42.7109 10.8428Z" fill="#2A6EDB"/>
<path d="M58.6943 55.3552V53.2544H64.4022V55.3552H58.6943Z" fill="black"/>
<path d="M4.28623 42.2145H0V40.0723H4.28623V42.2145Z" fill="black"/>
<path d="M0.00976562 55.3451V53.2585H4.28751V55.3451H0.00976562Z" fill="black"/>
<path d="M4.31576 32.6872H2.20801V30.6006H4.31576V32.6872Z" fill="black"/>
</svg>
