<svg width="55" height="72" viewBox="0 0 55 72" fill="none" xmlns="http://www.w3.org/2000/svg">
<path d="M33.7081 70.9995C31.4912 65.7354 29.3217 60.5761 27.0575 55.2088C24.8022 60.5572 22.6238 65.7383 20.4069 71.0039C19.3724 70.2254 18.397 69.498 17.4275 68.7676C15.7456 67.5018 14.0283 66.2709 12.4026 64.9527C11.637 64.3372 10.8212 64.0651 9.86945 63.9517C6.74368 63.5792 3.62235 63.1587 0.50101 62.7528C0.35322 62.7339 0.21873 62.6858 0 62.6335C0.192128 62.1577 0.365043 61.7183 0.548303 61.2833C2.81443 55.8941 5.08449 50.5064 7.35849 45.1201C7.45705 44.9176 7.50524 44.695 7.49907 44.4706C7.49291 44.2462 7.43256 44.0264 7.32302 43.8295C6.77217 42.693 6.01199 41.6669 5.08104 40.8032C3.61052 39.4268 2.22425 37.9719 0.78329 36.5853C0.637657 36.462 0.528616 36.3023 0.467731 36.123C0.406846 35.9437 0.396386 35.7515 0.43746 35.5668C0.820238 33.0934 1.24883 30.6389 1.50599 28.1596C1.61978 27.0771 1.41583 25.951 1.26804 24.8568C1.02567 23.0789 0.699049 21.3155 0.461107 19.539C0.438109 19.1999 0.552343 18.8657 0.778856 18.6092C2.57895 16.7483 4.42042 14.9267 6.23381 13.0804C6.52163 12.7853 6.76501 12.4512 6.9565 12.0881C8.07084 9.98423 9.16942 7.87211 10.2522 5.75174C10.3342 5.55507 10.4684 5.38375 10.6408 5.25574C10.8132 5.12774 11.0175 5.04779 11.2321 5.02426C13.8066 4.61542 16.3752 4.17893 18.9438 3.73371C19.3286 3.66732 19.7018 3.54729 20.0522 3.37725C22.1597 2.33549 24.279 1.30684 26.3644 0.211251C26.9348 -0.0797412 27.3693 -0.0637367 27.928 0.219981C29.9823 1.26173 32.0868 2.21182 34.1278 3.2754C35.7047 4.09891 37.4516 4.07417 39.1246 4.40736C40.4547 4.67216 41.8011 4.80602 43.1283 5.06209C43.4644 5.14499 43.7545 5.3538 43.9367 5.64408C45.1663 7.8789 46.3427 10.1428 47.5605 12.3849C47.7919 12.8105 48.0823 13.2023 48.4236 13.5489C50.0936 15.2308 51.7784 16.8982 53.478 18.551C53.7736 18.842 53.914 19.1083 53.8416 19.5579C53.4307 22.1172 52.9548 24.6735 52.7287 27.2503C52.6149 28.5219 52.9578 29.8372 53.1351 31.1277C53.3421 32.6147 53.5697 34.1002 53.8416 35.577C53.9229 36.0266 53.7825 36.2899 53.4839 36.5955C51.6469 38.4214 49.7892 40.2329 48.0246 42.1243C47.426 42.766 47.0565 43.6229 46.6368 44.4101C46.5511 44.5716 46.6737 44.8727 46.7624 45.0837C49.1182 50.6999 51.4779 56.3131 53.8416 61.9234C53.9332 62.1402 54.0189 62.3599 54.1372 62.6669C52.6873 62.859 51.3055 63.0452 49.9222 63.2256C47.6536 63.5166 45.3835 63.8076 43.1238 64.1248C42.8403 64.1907 42.5772 64.3229 42.3568 64.5104C39.6906 66.5046 37.0304 68.5047 34.3761 70.5106C34.1795 70.6503 33.983 70.7914 33.7081 70.9995ZM35.2274 49.146C37.5004 48.7706 39.6832 48.4185 41.8602 48.0315C42.0715 47.9922 42.3036 47.7405 42.4159 47.5339C43.2657 45.9509 44.0771 44.3461 44.9283 42.7631C45.1338 42.3804 45.0658 42.1811 44.7214 41.9294C43.8347 41.2877 42.9775 40.6039 42.0745 39.9099L43.4578 38.1566L46.2806 40.2911C47.9211 38.7605 49.4847 37.2851 51.072 35.8345C51.4267 35.5101 51.4932 35.174 51.4193 34.7346C51.1237 32.9668 50.8281 31.199 50.5725 29.424C50.5104 28.9875 50.3404 28.874 49.9192 28.8638C48.8477 28.8362 47.7777 28.7591 46.7536 28.7038V26.6304C47.8457 26.6304 48.8699 26.6203 49.8956 26.6304C50.237 26.6304 50.5 26.6712 50.5636 26.194C50.834 24.2254 51.1621 22.2656 51.4149 20.2955C51.4263 19.9516 51.3018 19.6168 51.0676 19.3615C50.0744 18.3168 49.0221 17.3245 48.0127 16.306C47.6255 15.9117 47.2959 15.4607 46.9575 15.0577L43.449 17.4569L42.1587 15.6295L45.4811 13.3365C44.4155 11.333 43.3913 9.37751 42.3243 7.44677C42.2149 7.24745 41.8573 7.12232 41.5942 7.07721C39.8207 6.77458 38.0472 6.51996 36.2737 6.21151C35.7668 6.12421 35.52 6.24934 35.3486 6.73384C34.9879 7.75232 34.5682 8.74897 34.1588 9.78926L32.0617 8.97303C32.5317 7.76978 32.9795 6.62618 33.448 5.4302C31.3789 4.42191 29.3704 3.42381 27.3383 2.46208C27.1713 2.38351 26.8654 2.497 26.6614 2.59739C25.0357 3.39471 23.4189 4.22258 21.7843 5.01262C21.3572 5.21923 21.2153 5.41565 21.3838 5.90161C21.74 6.92008 22.0134 7.96765 22.3312 9.03705L20.1734 9.66704L19.0413 6.00491C16.7831 6.37883 14.5795 6.73966 12.3789 7.12668C12.288 7.15083 12.2028 7.1926 12.1285 7.24957C12.0541 7.30653 11.992 7.37753 11.9459 7.45841C10.9779 9.27857 10.0246 11.1089 9.05365 12.9785L12.0228 15.2308L10.6542 16.9928L7.74866 14.838C7.57279 14.9907 7.42056 15.1086 7.2846 15.2439C5.92197 16.6043 4.57264 17.9865 3.19375 19.3338C2.8494 19.6699 2.78437 20.0002 2.85827 20.4367C3.15385 22.1332 3.44943 23.8282 3.66964 25.529C3.74649 26.1358 3.97409 26.2871 4.54752 26.2667C5.59387 26.2274 6.64171 26.2551 7.67181 26.2551V28.4724C6.55599 28.4724 5.50224 28.4928 4.45145 28.4622C3.97852 28.4477 3.75684 28.5423 3.69181 29.0646C3.50116 30.6039 3.32529 32.1506 2.98537 33.6608C2.71196 34.8772 2.95433 35.74 3.9401 36.5707C5.18597 37.6183 6.28701 38.8332 7.46342 39.987L10.6853 37.7944C11.1286 38.4316 11.541 39.0005 11.9784 39.6174L8.79206 41.8115C9.86207 43.8237 10.8877 45.7777 11.9518 47.7114C12.0523 47.8947 12.3745 48.0184 12.6139 48.0591C14.3874 48.3603 16.1609 48.6207 17.9344 48.9234C18.3778 49.0005 18.5935 48.8899 18.7354 48.4505C19.0827 47.3709 19.4862 46.3073 19.8823 45.1943L22.009 45.9363L20.7084 49.6639C22.7775 50.6751 24.8037 51.6718 26.8402 52.6335C27.0353 52.7252 27.3693 52.6728 27.5792 52.5695C29.2345 51.7693 30.8661 50.9225 32.5258 50.1295C32.9942 49.9055 33.0312 49.6683 32.879 49.2231C32.5302 48.2046 32.2435 47.1585 31.9198 46.0847L34.0746 45.4475C34.4559 46.6871 34.8298 47.8816 35.2274 49.146ZM3.18489 60.8366C5.69733 61.161 8.06198 61.4433 10.4266 61.7881C10.9794 61.8682 11.2025 61.7081 11.4183 61.2411C12.0361 59.9069 12.7085 58.5974 13.3706 57.253L15.4013 58.2264C14.6623 59.7483 13.9381 61.2236 13.1933 62.7513L19.4433 67.4581C21.3158 63.0045 23.1529 58.6381 24.9973 54.2529C23.3716 53.4585 21.8434 52.667 20.2769 51.973C19.4502 51.6006 18.5815 51.3261 17.6891 51.1553C15.5387 50.7581 13.3677 50.4729 11.2158 50.0917C10.8582 50.0043 10.5469 49.7877 10.3439 49.485C9.8665 48.7386 9.48077 47.934 8.99601 47.0348L3.18489 60.8366ZM50.9316 60.8366L45.1811 47.1716C44.7377 48.03 44.38 48.772 43.9455 49.4792C43.7629 49.7695 43.4792 49.9846 43.1475 50.0844C42.2149 50.2968 41.2587 50.4089 40.3143 50.5675C38.4714 50.8774 36.5516 50.969 34.8091 51.5641C32.8568 52.2305 31.0641 53.3523 29.1443 54.3053C30.9946 58.7036 32.8228 63.0467 34.6791 67.4625L41.0045 62.6931L38.8985 58.3762L40.9291 57.4102C41.5897 58.7516 42.2371 60.0291 42.8504 61.3211C43.0337 61.7096 43.2332 61.8478 43.6869 61.7852C46.0486 61.4549 48.4162 61.161 50.9316 60.8351V60.8366Z" fill="#2E3844"/>
<path d="M9.7207 32.7902C9.85224 31.536 9.90988 30.5408 10.0695 29.5616C10.4271 27.369 10.0355 25.2113 9.80347 23.0492C9.72218 22.2955 9.8345 21.7208 10.4109 21.1694C12.743 18.9389 14.549 16.3244 16.089 13.5192C16.2575 13.2137 16.6669 12.9518 17.0171 12.8499C17.9136 12.5892 18.8271 12.3889 19.7513 12.2505C22.1277 11.9013 24.213 10.781 26.3723 9.86144C26.6298 9.73767 26.913 9.67468 27.1996 9.67746C27.4862 9.68023 27.7681 9.74871 28.0231 9.87744C29.6961 10.618 31.3868 11.363 33.1293 11.9348C34.4978 12.3829 35.958 12.5502 37.3649 12.895C37.6782 12.9721 37.9354 13.269 38.2162 13.4697C38.2508 13.5043 38.2771 13.5461 38.2931 13.592C39.8271 16.5236 41.7945 19.215 44.1308 21.5782C44.3817 21.882 44.5087 22.2669 44.487 22.6578C44.4057 23.9862 44.1308 25.3102 44.1293 26.6357C44.1439 28.3765 44.2479 30.1155 44.4411 31.8459C44.5313 32.7392 44.4574 33.4464 43.7391 34.1171C41.4425 36.2792 39.703 38.8588 38.2295 41.616C38.1406 41.8122 38.0016 41.9823 37.826 42.1098C37.6503 42.2373 37.4441 42.3178 37.2275 42.3434C36.3319 42.4889 35.454 42.7567 34.5569 42.8891C32.1568 43.2455 30.0478 44.3717 27.8664 45.3014C27.3344 45.5284 26.8925 45.5924 26.3531 45.3101C23.3884 43.7868 20.2286 42.8367 16.9447 42.2547C16.7521 42.2096 16.5706 42.1272 16.4107 42.0123C16.2509 41.8974 16.1159 41.7523 16.0136 41.5854C14.4672 38.6602 12.4961 35.9723 10.1626 33.6064C9.90396 33.3431 9.79755 32.9371 9.7207 32.7902ZM42.1489 23.5366L42.3263 23.442C42.1105 23.023 41.9804 22.5269 41.6671 22.1995C39.768 20.212 38.1128 18.0572 36.8728 15.6129C36.6097 15.0949 36.2284 14.8738 35.6905 14.7879C32.9454 14.3479 30.2867 13.4894 27.8103 12.2432C27.6231 12.1337 27.4102 12.0741 27.1925 12.0703C26.9748 12.0665 26.7599 12.1185 26.5688 12.2214C24.0143 13.4801 21.2822 14.3541 18.464 14.8141C18.0753 14.9112 17.7413 15.1554 17.5344 15.4936C16.2043 17.7968 14.7973 20.0403 12.8184 21.8663C12.1592 22.473 12.0957 23.1278 12.1681 23.9469C12.3159 25.5808 12.3868 27.2235 12.3942 28.8618C12.3942 29.8264 12.1725 30.7881 12.14 31.7557C12.1269 32.1479 12.2575 32.5316 12.508 32.8367C14.4559 34.8737 16.1585 37.0896 17.4354 39.5994C17.5324 39.8055 17.6828 39.9829 17.8713 40.1139C18.0599 40.2449 18.28 40.3248 18.5098 40.3458C21.3002 40.8093 24.0064 41.673 26.5422 42.9094C26.9117 43.0557 27.3249 43.0526 27.692 42.9007C30.2628 41.6791 32.9935 40.8149 35.8057 40.3327C35.9982 40.2859 36.1793 40.202 36.3386 40.0859C36.4979 39.9697 36.6322 39.8237 36.7339 39.6561C38.0767 37.2006 39.7539 34.9371 41.7188 32.9284C41.979 32.6636 42.1208 32.1645 42.109 31.779C42.0602 29.9937 41.8858 28.2114 41.8622 26.4262C41.8504 25.4586 42.0469 24.4998 42.1489 23.5366Z" fill="#2E3844"/>
<path d="M38.8251 23.3607C37.1684 25.1401 35.624 26.8293 34.0382 28.4836C33.6317 28.907 33.4662 29.3057 33.546 29.8949C33.8076 31.8402 34.0116 33.7928 34.2347 35.7424C34.2731 36.0742 34.2938 36.4088 34.3308 36.8409C33.9081 36.6678 33.5711 36.5397 33.243 36.3943C31.4075 35.5722 29.566 34.7632 27.7452 33.9121C27.5544 33.8131 27.3415 33.7625 27.1258 33.7648C26.9101 33.767 26.6984 33.8222 26.5097 33.9252C24.3741 34.9058 22.2238 35.853 19.9271 36.8773C20.0646 35.6202 20.1857 34.4839 20.3128 33.349C20.4606 32.073 20.6306 30.7999 20.7341 29.521C20.729 29.2219 20.6134 28.9348 20.4089 28.7135C19.064 27.2324 17.6896 25.7759 16.3255 24.3093C16.0624 24.0271 15.8067 23.7375 15.4668 23.3622L19.7232 22.4892C20.6631 22.2986 21.5971 22.0687 22.5445 21.9363C23.0795 21.8621 23.3499 21.6002 23.5938 21.1666C24.7392 19.1297 25.9112 17.1204 27.129 15.002C27.6684 15.9259 28.1635 16.7712 28.6556 17.6209C29.3606 18.8416 30.036 20.0798 30.7809 21.2772C30.9906 21.5808 31.3061 21.7982 31.6676 21.8883C33.9909 22.4033 36.3289 22.8558 38.8251 23.3607ZM34.4254 24.7647C32.9667 24.4738 31.6573 24.1711 30.336 23.95C30.0843 23.9199 29.8448 23.8266 29.6403 23.6791C29.4358 23.5316 29.2733 23.3348 29.1685 23.1075C28.5315 21.9276 27.8383 20.7796 27.129 19.5356C26.4048 20.8029 25.7057 21.9479 25.0865 23.1308C24.8175 23.6386 24.4672 23.8583 23.9042 23.9572C22.5844 24.1842 21.2779 24.4796 19.8399 24.7735C20.8745 25.8909 21.8366 26.8875 22.741 27.9351C22.9718 28.2193 23.0918 28.5754 23.0795 28.939C22.9731 30.3343 22.7839 31.7224 22.6228 33.2181C24.0061 32.5983 25.283 31.993 26.5999 31.459C26.9473 31.3348 27.3286 31.3373 27.6743 31.4663C28.9822 31.9974 30.2606 32.5983 31.641 33.2122C31.4784 31.7573 31.3602 30.4071 31.1651 29.07C31.0853 28.5273 31.242 28.1694 31.6085 27.7911C32.547 26.8337 33.4337 25.8414 34.4254 24.7647Z" fill="#244BAB"/>
</svg>
