<svg width="57" height="63" viewBox="0 0 57 63" fill="none" xmlns="http://www.w3.org/2000/svg">
<path d="M28.8551 62.5754H26.6705V22.4049C25.7714 22.1416 24.8928 21.9684 24.0743 21.6178C22.3414 20.8892 20.8903 19.6261 19.9353 18.0152C18.9803 16.4043 18.572 14.5309 18.7707 12.6718C19.1558 8.87458 22.0448 5.75387 25.9178 5.01916C26.4874 4.9115 26.6236 4.71655 26.6119 4.18988C26.5811 2.81503 26.6016 1.43726 26.6016 0.0129395H28.8244V4.89841C29.0792 4.97115 29.2798 5.04389 29.4848 5.08608C31.4138 5.52599 33.1377 6.59812 34.3789 8.12985C35.6201 9.66158 36.3064 11.5638 36.3273 13.5302C36.3478 17.5674 33.5452 21.1581 29.5917 22.0616C28.965 22.207 28.9093 22.4762 28.9093 22.9941C28.8956 35.894 28.8751 48.7939 28.8478 61.6938L28.8551 62.5754ZM27.527 20.0931C28.8215 20.0893 30.0857 19.7038 31.1594 18.9855C32.2331 18.2672 33.0681 17.2483 33.5584 16.058C34.0488 14.8677 34.1726 13.5596 33.914 12.2994C33.6554 11.0392 33.0261 9.88359 32.1059 8.97907C31.1856 8.07454 30.0159 7.46178 28.7448 7.21844C27.4737 6.9751 26.1586 7.11213 24.966 7.61216C23.7734 8.11219 22.757 8.95272 22.0456 10.0272C21.3343 11.1018 20.9599 12.3619 20.9701 13.648C20.9803 17.1834 23.9425 20.096 27.5285 20.096L27.527 20.0931Z" fill="#2A6EDB"/>
<path d="M46.8566 0H49.0457V33.5261C49.3078 33.6018 49.5069 33.6716 49.7119 33.7167C53.7548 34.6798 56.5383 38.1061 56.5618 42.1477C56.5874 44.1163 55.937 46.0347 54.7178 47.5867C53.4987 49.1387 51.7836 50.2315 49.8554 50.6849C49.236 50.8304 49.1233 51.0995 49.1233 51.6611C49.1233 55.0306 49.1013 58.4016 49.0838 61.771V62.5247H46.8683V50.9395C45.0014 50.6805 43.3365 50.0317 41.9689 48.7761C39.3127 46.3377 38.3463 43.3247 39.3171 39.8752C40.2689 36.4868 42.6263 34.3976 46.0952 33.6672C46.7966 33.5218 46.8625 33.2497 46.861 32.675C46.8493 22.1029 46.8464 11.5308 46.8522 0.958762L46.8566 0ZM47.7249 48.7383C51.2772 48.7703 54.2878 45.8489 54.3331 42.3281C54.3413 41.4663 54.1783 40.6113 53.8536 39.8121C53.5288 39.0129 53.0487 38.2852 52.4407 37.6705C51.8326 37.0558 51.1086 36.5662 50.31 36.2298C49.5114 35.8934 48.6538 35.7167 47.7864 35.7099C44.2458 35.6837 41.2587 38.6196 41.2133 42.1579C41.1679 45.6961 44.1214 48.7063 47.7205 48.7383H47.7249Z" fill="#2E3844"/>
<path d="M7.85727 0H10.0683V24.9525C12.7918 25.4763 14.9004 26.8206 16.328 29.1411C17.2997 30.7004 17.7317 32.5325 17.558 34.3583C17.2022 38.3461 14.3923 41.3417 10.1415 42.2655V62.5174C9.45918 62.5174 8.85736 62.5174 8.25702 62.5174C7.73281 62.5174 7.86166 62.1144 7.86166 61.8321C7.85483 58.6809 7.85483 55.5287 7.86166 52.3755C7.86166 49.2489 7.85141 46.1195 7.87338 42.9959C7.87338 42.494 7.75477 42.2815 7.22178 42.1928C3.07498 41.5134 0.0102755 37.8631 2.55972e-05 33.6469C-0.0102243 29.3972 3.05887 25.7236 7.23789 25.0398C7.80895 24.9467 7.86606 24.6892 7.86459 24.2178C7.85483 16.4585 7.85239 8.70257 7.85727 0.950033V0ZM2.22424 33.6323C2.23156 37.1691 5.19377 40.1269 8.74022 40.1371C12.376 40.1487 15.3733 37.1677 15.3411 33.5727C15.3156 31.8569 14.6154 30.2191 13.3904 29.0095C12.1653 27.7999 10.5126 27.1146 8.78561 27.0999C5.20402 27.0941 2.21839 30.0664 2.22424 33.6323Z" fill="#2E3844"/>
<path d="M31.0627 13.6397C31.0452 15.5558 29.3993 17.1576 27.4841 17.1227C26.5473 17.1021 25.6562 16.716 25.0036 16.0479C24.3509 15.3798 23.989 14.4834 23.9962 13.5524C24.0138 11.6392 25.664 10.0389 27.5719 10.0651C28.5081 10.0909 29.397 10.4791 30.0491 11.1469C30.7013 11.8147 31.065 12.7092 31.0627 13.6397ZM28.8268 13.599C28.8243 13.4296 28.7882 13.2624 28.7206 13.107C28.653 12.9515 28.5552 12.8108 28.4328 12.693C28.3104 12.5751 28.1658 12.4824 28.0072 12.4202C27.8487 12.358 27.6794 12.3274 27.509 12.3303C27.178 12.3415 26.8643 12.4799 26.6342 12.7165C26.404 12.953 26.2754 13.2692 26.2754 13.5982C26.2754 13.9273 26.404 14.2434 26.6342 14.48C26.8643 14.7166 27.178 14.855 27.509 14.8662C27.8526 14.8708 28.1841 14.7402 28.431 14.5027C28.678 14.2653 28.8203 13.9403 28.8268 13.599Z" fill="#2A6EDB"/>
<path d="M51.2959 42.2409C51.2731 43.1593 50.8887 44.0321 50.2252 44.672C49.5618 45.3119 48.6722 45.6678 47.7476 45.6632C46.823 45.6587 45.9371 45.294 45.2801 44.6476C44.6231 44.0012 44.2474 43.1245 44.2338 42.2059C44.2268 41.7393 44.3136 41.276 44.4891 40.8432C44.6646 40.4103 44.9252 40.0165 45.2556 39.6849C45.5861 39.3534 45.9798 39.0906 46.4138 38.912C46.8477 38.7335 47.3131 38.6427 47.7828 38.645C48.2524 38.6473 48.7169 38.7427 49.149 38.9255C49.5812 39.1084 49.9722 39.375 50.2994 39.7099C50.6265 40.0447 50.8832 40.441 51.0543 40.8756C51.2254 41.3102 51.3075 41.7743 51.2959 42.2409ZM49.0615 42.2074C49.0515 41.8652 48.9071 41.5405 48.6591 41.3028C48.4112 41.0651 48.0794 40.9334 47.7348 40.9358C47.4034 40.9532 47.0903 41.0927 46.8567 41.3269C46.6231 41.5612 46.4856 41.8735 46.4712 42.203C46.4653 42.3757 46.4945 42.5477 46.557 42.7089C46.6194 42.8701 46.7139 43.0171 46.8347 43.1413C46.9556 43.2655 47.1003 43.3642 47.2604 43.4317C47.4204 43.4991 47.5925 43.5339 47.7663 43.5339C47.9402 43.5339 48.1122 43.4991 48.2723 43.4317C48.4323 43.3642 48.5771 43.2655 48.6979 43.1413C48.8188 43.0171 48.9132 42.8701 48.9757 42.7089C49.0381 42.5477 49.0673 42.3757 49.0615 42.203V42.2074Z" fill="#2E3844"/>
<path d="M8.80323 37.1286C8.10478 37.132 7.42099 36.9296 6.8383 36.5469C6.25562 36.1643 5.8002 35.6186 5.52965 34.9788C5.25909 34.339 5.18553 33.6338 5.31828 32.9525C5.45103 32.2712 5.78412 31.6442 6.27544 31.151C6.76676 30.6577 7.39425 30.3203 8.07856 30.1814C8.76288 30.0424 9.4733 30.1082 10.12 30.3703C10.7667 30.6325 11.3206 31.0793 11.7118 31.6543C12.1029 32.2292 12.3137 32.9065 12.3175 33.6005C12.3223 34.0621 12.235 34.52 12.0605 34.9479C11.8861 35.3757 11.628 35.7649 11.3012 36.093C10.9744 36.4211 10.5854 36.6816 10.1566 36.8593C9.72781 37.0371 9.26783 37.1286 8.80323 37.1286ZM10.083 33.5903C10.0646 33.2484 9.91436 32.9266 9.66354 32.6917C9.41271 32.4569 9.08053 32.3269 8.73588 32.3289C8.48047 32.3387 8.23366 32.4233 8.02644 32.572C7.81922 32.7206 7.66082 32.9268 7.57112 33.1646C7.48142 33.4024 7.46441 33.6613 7.52225 33.9086C7.58008 34.156 7.71017 34.3809 7.89618 34.5551C8.0822 34.7293 8.31585 34.845 8.56781 34.8877C8.81978 34.9304 9.07882 34.8982 9.31243 34.7951C9.54603 34.692 9.74379 34.5227 9.88089 34.3084C10.018 34.094 10.0883 33.8442 10.083 33.5903Z" fill="#2E3844"/>
</svg>
