<svg width="61" height="66" viewBox="0 0 61 66" fill="none" xmlns="http://www.w3.org/2000/svg">
<path d="M8.36611 0H44.0985V0.897625C44.0985 6.63045 44.1074 12.3648 44.0866 18.1021C44.0866 18.7005 44.2351 19.0955 44.746 19.4635C47.1565 21.2094 49.5254 23.0136 51.9284 24.7685C52.3383 25.0677 52.4735 25.3878 52.4735 25.8845C52.4601 32.865 52.4735 39.8456 52.4557 46.8291C52.4557 47.4275 52.6621 47.7342 53.1537 48.0588C55.3013 49.4771 57.4385 49.6072 59.6737 48.0693L60.8366 50.0845C59.5341 50.8714 58.1959 51.3965 56.7137 51.5087C55.2048 51.6239 53.8696 51.0419 52.472 50.3119C52.472 51.2095 52.4631 51.9994 52.4794 52.7878C52.4821 52.8589 52.4997 52.9287 52.5312 52.9924C52.5627 53.0561 52.6073 53.1123 52.6621 53.1573C54.1087 54.0131 55.5226 55.0543 57.3405 54.6414C58.1974 54.4469 59.0128 54.0624 59.9292 53.7333C60.2544 54.3003 60.6198 54.9391 61 55.6004C58.1885 57.3388 55.4038 57.6051 52.4943 55.7021V65.0105H0.0564375C0.0401003 64.7786 0 64.5362 0 64.2998C0 51.5107 0 38.721 0 25.9309C0 25.4462 0.166342 25.1664 0.540612 24.8837C2.98673 23.0615 5.40909 21.2064 7.85818 19.3872C8.0304 19.276 8.1696 19.1199 8.2611 18.9356C8.35259 18.7513 8.39298 18.5455 8.37799 18.34C8.36215 12.5323 8.35819 6.72371 8.36611 0.914081V0ZM42.4484 48.1097C44.8633 46.7318 47.3095 45.8252 50.1224 46.5493C50.1402 46.3503 50.1595 46.2292 50.1595 46.108C50.1595 39.675 50.1595 33.242 50.1343 26.8091C50.1154 26.6473 50.0648 26.4908 49.9856 26.3488C49.9063 26.2068 49.7998 26.0821 49.6724 25.9817C48.0209 24.7131 46.3396 23.4804 44.6658 22.2416C44.5173 22.1339 44.3539 22.0546 44.1534 21.9424V29.5528L47.4862 27.6424L48.606 29.5872C48.4575 29.6874 48.3877 29.7503 48.309 29.7996C40.9642 34.0723 33.6224 38.3475 26.2835 42.6252C25.8855 42.8571 25.6226 42.7748 25.2795 42.5758C20.1011 39.5568 14.9198 36.5428 9.73546 33.5338C7.7453 32.3773 5.75959 31.2164 3.70557 30.0196L4.84026 28.0373L8.33047 30.0495V21.9529C8.10472 22.1025 7.93838 22.1938 7.78689 22.309C6.11753 23.5626 4.46599 24.8343 2.78474 26.0655C2.39562 26.3513 2.27681 26.652 2.27829 27.1128C2.29017 38.731 2.29364 50.3503 2.28869 61.9705C2.28869 62.2114 2.308 62.4522 2.31988 62.7096H50.0868C50.1212 62.6338 50.1457 62.5538 50.1595 62.4717C50.1595 59.9538 50.1803 57.436 50.1432 54.9182C50.1432 54.7087 49.8224 54.3901 49.5877 54.3198C48.2199 53.8814 46.8966 54.1806 45.6134 54.7057C44.9836 54.9631 44.3792 55.2817 43.7331 55.5869L42.5583 53.5179C43.8415 53.0212 44.9985 52.4198 46.2282 52.14C47.458 51.8603 48.7917 51.8947 50.161 51.7855C50.161 51.1302 50.1343 50.3358 50.1714 49.5414C50.1937 49.0926 49.9828 48.928 49.6115 48.8188C48.5128 48.4819 47.3357 48.5092 46.2535 48.8966C45.3535 49.2153 44.4846 49.6267 43.543 50.0216L42.4484 48.1097ZM10.6607 2.32186C10.6489 2.5328 10.6325 2.70185 10.6325 2.8709C10.6325 12.1962 10.6271 21.5215 10.6162 30.8469C10.6162 31.2957 10.7914 31.5081 11.1434 31.7116C15.8376 34.4294 20.5269 37.1572 25.2112 39.8949C25.6568 40.1582 25.9701 40.1537 26.4142 39.8949C31.3302 37.0155 36.2561 34.1526 41.1919 31.3062C41.6642 31.0354 41.8217 30.7421 41.8202 30.1991C41.8023 21.173 41.7984 12.1469 41.8083 3.12074V2.32186H10.6607Z" fill="#2E3844"/>
<path d="M28.1084 50.2669C28.1068 48.5018 28.8009 46.8082 30.0382 45.5582C31.2755 44.3083 32.9548 43.6042 34.7071 43.6006C38.2983 43.6006 41.2895 46.5927 41.3103 50.2101C41.3119 51.0907 41.1407 51.963 40.8065 52.7767C40.4723 53.5905 39.9817 54.3296 39.363 54.9518C38.7442 55.5739 38.0095 56.0668 37.2011 56.4019C36.3927 56.7371 35.5264 56.908 34.6522 56.9049C31.0595 56.8989 28.1129 53.9098 28.1084 50.2669ZM39.0023 50.2954C39.0092 49.7212 38.9029 49.1514 38.6895 48.619C38.4761 48.0866 38.16 47.6021 37.7593 47.1937C37.3587 46.7852 36.8816 46.461 36.3556 46.2397C35.8296 46.0184 35.2653 45.9044 34.6953 45.9045C33.8402 45.9007 33.0031 46.1522 32.2898 46.6273C31.5766 47.1023 31.0191 47.7797 30.6877 48.5737C30.3564 49.3678 30.266 50.2429 30.4282 51.0886C30.5903 51.9344 30.9976 52.7127 31.5986 53.3254C32.1996 53.9381 32.9674 54.3577 33.8049 54.5311C34.6425 54.7046 35.5124 54.6241 36.3046 54.2999C37.0968 53.9756 37.7758 53.4222 38.256 52.7095C38.7362 51.9968 38.9959 51.1567 39.0023 50.2954Z" fill="#2A6EDB"/>
<path d="M38.0068 24.5156V26.7387H14.4219V24.5156H38.0068Z" fill="#2E3844"/>
<path d="M14.4375 17.5411V15.3479H38.0016V17.5411H14.4375Z" fill="#2E3844"/>
<path d="M38.0209 22.1504H14.5088V19.9272H38.0209V22.1504Z" fill="#2E3844"/>
<path d="M35.6966 8.44385V10.6341H16.7529V8.44385H35.6966Z" fill="#2E3844"/>
<path d="M36.6068 50.267C36.6078 50.5212 36.5584 50.7731 36.4613 51.0078C36.3642 51.2424 36.2216 51.4552 36.0417 51.6335C35.8617 51.8118 35.6482 51.952 35.4137 52.046C35.1792 52.1399 34.9284 52.1856 34.676 52.1804C34.4212 52.1864 34.1678 52.1409 33.9308 52.0465C33.6938 51.9522 33.4779 51.811 33.296 51.6312C33.1141 51.4514 32.9698 51.2367 32.8717 50.9998C32.7735 50.7628 32.7235 50.5085 32.7246 50.2518C32.7257 49.9951 32.7779 49.7412 32.878 49.5051C32.9782 49.2691 33.1243 49.0556 33.3077 48.8774C33.4912 48.6992 33.7082 48.5598 33.946 48.4675C34.1839 48.3752 34.4376 48.3319 34.6924 48.3401C34.9448 48.3358 35.1955 48.3828 35.4296 48.4781C35.6637 48.5734 35.8763 48.7152 36.0549 48.8949C36.2335 49.0747 36.3744 49.2888 36.4692 49.5245C36.564 49.7602 36.6108 50.0127 36.6068 50.267Z" fill="#2A6EDB"/>
</svg>
