<svg width="74" height="63" viewBox="0 0 74 63" fill="none" xmlns="http://www.w3.org/2000/svg">
<path d="M2.70898 24.0139C4.44412 23.4673 6.11669 22.9371 7.79076 22.4158C12.947 20.8073 18.1077 19.2108 23.2565 17.5799C23.6905 17.4331 24.0732 17.164 24.3587 16.8048C28.3999 11.4491 32.4257 6.08101 36.4361 0.700448C36.5969 0.485385 36.7682 0.27779 36.9886 0C37.1897 0.24792 37.3625 0.448048 37.5188 0.655643C41.56 6.04417 45.6037 11.4302 49.6499 16.8137C49.9352 17.1724 50.3188 17.4397 50.7535 17.5829C57.2979 19.6479 63.8511 21.696 70.4134 23.7271C70.6904 23.8152 70.9644 23.9168 71.307 24.0258L65.7352 31.4067C63.3701 34.543 61.0124 37.6793 58.6294 40.8007C58.2959 41.225 58.1238 41.7544 58.1438 42.2942C58.1696 48.8895 58.1825 55.4843 58.1825 62.0785V62.9866C56.3402 62.4086 54.5738 61.859 52.8103 61.3019C47.7539 59.7054 42.7004 58.0969 37.638 56.5227C37.2208 56.4003 36.7773 56.4003 36.3601 56.5227C29.784 58.5738 23.2133 60.6413 16.6481 62.7252C16.4128 62.7999 16.1775 62.8746 15.8394 62.9716C15.8394 62.6505 15.8394 62.3892 15.8394 62.1293C15.8394 55.5086 15.8394 48.8895 15.8751 42.2659C15.8847 41.6999 15.6936 41.149 15.336 40.7111C11.2878 35.4023 7.2521 30.078 3.22878 24.7382C3.06793 24.5246 2.91601 24.3021 2.70898 24.0139ZM55.8963 59.8696V59.1154C55.8829 53.2176 55.8606 47.3168 55.877 41.4235C55.8907 40.9397 56.0495 40.4713 56.3327 40.0794C59.8581 35.3629 63.4162 30.6704 66.964 25.9689C67.1337 25.7433 67.2961 25.5133 67.4882 25.249C67.2306 25.1579 67.0697 25.0996 66.9059 25.0444C61.0168 23.2054 55.1293 21.3634 49.2433 19.5185C48.8776 19.3953 48.5557 19.168 48.3169 18.8643C45.8102 15.5562 43.3304 12.2287 40.8417 8.90868C39.5802 7.22403 38.3097 5.54086 37.0065 3.79497C36.7622 4.1086 36.5597 4.35503 36.3765 4.60743C32.8149 9.35972 29.2503 14.11 25.6827 18.8583C25.4456 19.1632 25.1246 19.3917 24.7593 19.5155C20.1303 20.9836 15.4909 22.4203 10.8559 23.866C9.42163 24.3141 7.98736 24.7621 6.50244 25.2326C6.69606 25.5044 6.83309 25.709 6.98202 25.9046C10.5307 30.6052 14.0834 35.3022 17.64 39.9957C17.9807 40.4175 18.1611 40.9467 18.1494 41.4892C18.1181 47.3363 18.1122 53.1848 18.1018 59.0318C18.1018 59.2902 18.1241 59.5485 18.1375 59.8368C18.3758 59.7756 18.5441 59.7397 18.7079 59.6874C24.59 57.8275 30.4731 55.9711 36.3571 54.1182C36.7485 53.996 37.1664 53.9882 37.562 54.0958C42.0302 55.4848 46.4983 56.9095 50.959 58.3224C52.5825 58.8436 54.2133 59.3424 55.8963 59.8696Z" fill="#2E3844"/>
<path d="M15.8384 11.9554C12.7554 8.86091 9.65746 5.75295 6.59082 2.67337C7.0853 2.18948 7.60807 1.68169 8.09361 1.20825L17.3546 10.5008C16.878 10.9563 16.3642 11.4506 15.8384 11.9554Z" fill="#2E3844"/>
<path d="M74.0002 51.7525C73.595 52.4575 73.2376 53.0758 72.8548 53.7404L61.3359 47.069L62.4723 45.0781L74.0002 51.7525Z" fill="#2E3844"/>
<path d="M11.5263 45.072L12.6598 47.0628L1.14682 53.7343L0 51.7524L11.5263 45.072Z" fill="#2E3844"/>
<path d="M58.0534 11.9703L56.6787 10.5649L66.0246 1.18579L67.4291 2.5598L58.0534 11.9703Z" fill="#2E3844"/>
<path d="M19.8926 49.9528V47.7215H26.1629V27.9491H21.2628V25.688H28.5087V27.861C29.8178 27.9133 30.8366 27.7923 31.6066 26.5333C32.2783 25.4326 33.3 24.5275 34.2413 23.6135C35.6711 22.2231 36.453 20.5728 36.4679 18.5775C36.4679 17.7411 36.6913 17.0601 37.5105 16.6882C38.4399 16.2655 39.3484 16.2536 40.1795 16.8973C41.5705 17.9756 42.2646 19.4541 42.5163 21.1657C42.8142 23.1356 42.3465 24.9651 41.4737 26.7155C41.3248 27.0037 41.1848 27.292 41.0493 27.5847C41.0314 27.6206 41.0612 27.6788 41.0746 27.758C41.8952 27.8117 42.6518 27.9073 43.404 27.2382C43.8865 26.8066 44.7027 26.608 45.3834 26.5691C47.0217 26.475 48.66 26.5303 50.2983 26.5393C53.155 26.5542 54.7531 29.2679 53.3858 31.7665C53.3397 31.8516 53.2935 31.9367 53.2369 32.0443C54.5192 33.493 54.7129 35.0313 53.6167 36.6741C53.5363 36.7951 53.6167 37.0893 53.7194 37.2521C54.6026 38.7575 54.5312 40.0016 53.499 41.41C53.4366 41.5109 53.3973 41.6246 53.3842 41.7426C53.371 41.8607 53.3843 41.9802 53.4231 42.0925C54.6399 44.6613 53.0716 47.2197 50.2164 47.2346C44.7563 47.263 39.2963 47.26 33.8332 47.2689C32.0981 47.2689 30.3629 47.2689 28.5533 47.2689V49.9483L19.8926 49.9528ZM31.3817 37.2192C31.8151 37.1909 32.1606 37.1759 32.5047 37.146C34.9919 36.931 36.5856 35.6227 37.2707 33.2212C37.4196 32.7208 37.5879 32.2011 37.5805 31.6918C37.5537 29.5397 38.1926 27.634 39.3439 25.8224C40.1257 24.5893 40.4568 23.1225 40.2807 21.672C40.1556 20.5638 39.8116 19.5572 38.8316 18.7776C38.7988 18.9449 38.7705 19.0315 38.7645 19.1196C38.5933 21.7466 37.3869 23.8271 35.5102 25.6178C34.566 26.5139 33.7647 27.5772 32.9455 28.6048C32.6086 29.052 32.1779 29.4195 31.6838 29.6814C31.1896 29.9434 30.6442 30.0933 30.0859 30.1207C29.5765 30.155 29.0702 30.2133 28.5846 30.2581V44.9973H41.4514C41.5497 43.9519 41.6361 43.0364 41.7314 42.0313C39.9888 40.4482 39.7952 39.0786 41.0954 36.8922C39.7237 34.4906 39.9754 33.2465 42.2289 31.3767C42.1231 30.9839 42.0129 30.5807 41.9042 30.1819H40.0648C39.7192 37.8226 35.2198 39.6297 31.3757 39.4191L31.3817 37.2192ZM47.3255 33.4273C46.1847 33.4273 45.0438 33.4273 43.8999 33.4273C43.0704 33.4273 42.5357 33.8932 42.5342 34.5772C42.5327 35.2613 43.0599 35.7257 43.8985 35.7302C46.1554 35.7422 48.4118 35.7422 50.6677 35.7302C51.5092 35.7302 52.029 35.2628 52.029 34.5802C52.029 33.8977 51.5107 33.4362 50.6692 33.4287C49.5566 33.4213 48.4411 33.4287 47.3255 33.4273ZM47.2898 38.0436C46.1504 38.0436 45.0095 38.0436 43.8642 38.0436C43.0391 38.0526 42.5148 38.532 42.5372 39.2205C42.558 39.8866 43.0614 40.3212 43.8597 40.3242C46.1435 40.3322 48.4242 40.3322 50.702 40.3242C51.4988 40.3242 52.0037 39.8881 52.026 39.2265C52.0498 38.529 51.5301 38.0511 50.7064 38.0436C49.5715 38.0362 48.4306 38.0436 47.2898 38.0436ZM47.68 42.6541C46.7625 42.6541 45.8451 42.6346 44.9291 42.6541C44.2023 42.675 43.7376 43.1708 43.7629 43.8279C43.7867 44.4507 44.2514 44.9152 44.938 44.9212C46.7471 44.9391 48.5563 44.9391 50.3654 44.9212C51.0862 44.9212 51.5762 44.4238 51.5762 43.7801C51.5762 43.1365 51.0877 42.666 50.3564 42.6481C49.4643 42.6376 48.5721 42.6541 47.68 42.6541ZM47.9585 28.8243C47.1185 28.8243 46.277 28.8034 45.437 28.8243C44.7102 28.8467 44.2455 29.3201 44.2365 29.9728C44.2276 30.6255 44.6834 31.1243 45.4206 31.1362C47.0768 31.1641 48.7335 31.1641 50.3907 31.1362C51.1354 31.1228 51.5822 30.6449 51.5911 29.9877C51.5911 29.3067 51.1115 28.8407 50.3326 28.8213C49.5536 28.8019 48.7538 28.8153 47.9585 28.8243Z" fill="#2A6EDB"/>
</svg>
