<svg width="67" height="61" viewBox="0 0 67 61" fill="none" xmlns="http://www.w3.org/2000/svg">
<path d="M33.4821 0.0271396C43.2229 0.0271396 52.9693 0.0655449 62.7043 0.000113666C65.2931 -0.0169553 67 1.89051 67 4.29297C66.9441 21.618 66.9374 38.9431 66.9801 56.2681C66.9801 58.0049 66.35 59.3292 64.781 60.0774C64.1734 60.3392 63.5166 60.4672 62.8551 60.4529C48.9154 60.4747 34.9799 60.4809 21.0488 60.4714C15.4075 60.4714 9.76617 60.4628 4.12201 60.4714C2.38809 60.4714 1.0752 59.7843 0.358297 58.1955C0.120437 57.6091 0.00475661 56.9804 0.018339 56.3478C0.000321738 42.0572 -0.00441966 27.7657 0.00411485 13.4733C0.00411485 10.3923 0.00411485 7.31039 0.00411485 4.22754C0.0126494 1.57615 1.54317 0.0299844 4.18745 0.028562C13.9528 0.0247689 23.7177 0.0242948 33.4821 0.0271396ZM2.18895 12.4534V56.1358C2.18895 57.7915 2.68111 58.2794 4.35814 58.2794H62.8096C64.2192 58.2794 64.7839 57.7105 64.7839 56.288C64.7839 41.9226 64.7839 27.5585 64.7839 13.1959V12.4534H2.18895ZM2.18895 10.1576H64.7753C64.7753 8.16622 64.7753 6.22461 64.7753 4.28301C64.7753 2.76103 64.2377 2.22051 62.7399 2.22051H16.369C12.245 2.22051 8.11996 2.22051 3.994 2.22051C2.93145 2.22051 2.2046 2.78947 2.18895 3.71689C2.17046 5.84483 2.19322 7.97561 2.19322 10.1576H2.18895Z" fill="#2E3844"/>
<path d="M25.5283 18.1573V16.082H60.4657V18.1573H25.5283Z" fill="#2E3844"/>
<path d="M25.5273 33.4738V31.4084H60.4648V33.4738H25.5273Z" fill="#2E3844"/>
<path d="M60.4881 45.2246V47.3042H25.5479V45.2246H60.4881Z" fill="#2E3844"/>
<path d="M8.7756 53.5939L7.12275 51.9781L9.82535 49.4703L7.08008 46.7848L8.75569 45.1547L11.2719 47.8459L13.8465 45.1277L15.4937 46.8417L12.7911 49.385L15.5748 51.9766L13.9745 53.5413C13.1495 52.6793 12.2904 51.7761 11.3829 50.8316L8.7756 53.5939Z" fill="#2E3844"/>
<path d="M17.423 30.4612L18.8113 31.9135L11.2269 39.4893L7.16309 36.1295L8.53856 34.4596L11.2412 36.6515C13.3051 34.5862 15.3534 32.5336 17.423 30.4612Z" fill="#2A6EDB"/>
<path d="M40.0207 21.1841V23.2622H25.5391V21.1841H40.0207Z" fill="#2E3844"/>
<path d="M40.0137 36.5078V38.5845H25.542V36.5078H40.0137Z" fill="#2E3844"/>
<path d="M25.5264 52.4119V50.3438H39.9938V52.4119H25.5264Z" fill="#2E3844"/>
<path d="M11.2478 21.9865L17.4496 15.7891C17.9517 16.2969 18.4282 16.7848 18.8521 17.2115L11.2407 24.8157L7.16406 21.4517L8.55234 19.7718L11.2478 21.9865Z" fill="#2A6EDB"/>
<path d="M58.2481 5.94164C58.2469 6.13746 58.2065 6.33105 58.1291 6.51096C58.0518 6.69088 57.9392 6.85347 57.798 6.98913C57.6568 7.12478 57.4898 7.23075 57.3069 7.30077C57.124 7.37078 56.929 7.40343 56.7333 7.39677C56.5375 7.39621 56.3437 7.35698 56.1631 7.28132C55.9825 7.20565 55.8186 7.09506 55.6809 6.95588C55.5432 6.8167 55.4343 6.65168 55.3606 6.4703C55.2868 6.28893 55.2496 6.09476 55.2511 5.89896C55.2485 5.69865 55.286 5.49985 55.3615 5.31429C55.437 5.12874 55.549 4.9602 55.6907 4.81863C55.8324 4.67706 56.0011 4.56533 56.1868 4.49004C56.3724 4.41475 56.5712 4.37743 56.7715 4.38028C56.9719 4.38313 57.1696 4.4261 57.353 4.50664C57.5364 4.58719 57.7018 4.70367 57.8395 4.84922C57.9771 4.99477 58.0842 5.16643 58.1544 5.35406C58.2246 5.54169 58.2565 5.74148 58.2481 5.94164Z" fill="#2E3844"/>
<path d="M51.7959 4.38821C52.1904 4.40612 52.5629 4.57527 52.836 4.86053C53.109 5.14579 53.2618 5.52525 53.2625 5.92015C53.2578 6.11722 53.2144 6.31144 53.1346 6.49172C53.0549 6.672 52.9404 6.83481 52.7978 6.97086C52.6551 7.1069 52.4871 7.21352 52.3032 7.28462C52.1194 7.35572 51.9233 7.38991 51.7263 7.38524C51.5292 7.38057 51.335 7.33713 51.1547 7.2574C50.9744 7.17767 50.8116 7.06322 50.6755 6.92057C50.4008 6.63247 50.2517 6.24703 50.2612 5.84903C50.2784 5.45433 50.448 5.08168 50.7341 4.80929C51.0203 4.53691 51.4009 4.38599 51.7959 4.38821Z" fill="#2E3844"/>
<path d="M61.1072 7.39664C60.9114 7.39821 60.7172 7.36046 60.5363 7.28563C60.3553 7.21081 60.1912 7.10043 60.0536 6.96103C59.9161 6.82162 59.8079 6.65604 59.7355 6.47407C59.6631 6.29211 59.628 6.09747 59.6322 5.90168C59.6313 5.50677 59.7853 5.12726 60.0611 4.84459C60.3368 4.56191 60.7124 4.39858 61.1072 4.38965C61.5145 4.39303 61.9039 4.5576 62.1902 4.84736C62.4765 5.13712 62.6364 5.52848 62.6349 5.93582C62.6234 6.33122 62.4566 6.70619 62.1707 6.97957C61.8848 7.25296 61.5027 7.40279 61.1072 7.39664Z" fill="#2E3844"/>
</svg>
