<svg width="70" height="61" viewBox="0 0 70 61" fill="none" xmlns="http://www.w3.org/2000/svg">
<path d="M39.999 22.1458C43.7836 21.1036 47.555 21.5643 51.291 21.4786C57.6998 21.3419 62.6448 24.1096 66.2277 29.2481C71.9149 37.4115 70.675 48.9342 63.4297 55.6338C60.1782 58.6398 56.2979 60.1778 51.8256 60.1676C48.9555 60.1603 46.0824 60.2097 43.2182 60.0469C39.9784 59.8638 37.0877 58.6108 34.5401 56.6339C34.1071 56.2981 33.736 56.2327 33.2044 56.3519C28.2933 57.4479 23.3085 57.7328 18.2898 57.6063C14.062 57.4988 9.85324 57.1703 5.78589 55.958C4.35009 55.5306 2.96731 54.859 1.64638 54.1453C0.500688 53.5275 0 52.4751 0 51.1189C0.026507 36.2922 0.026507 21.4655 0 6.63878C0 5.09797 0.658257 4.0601 1.91439 3.29551C4.03495 1.99454 6.40586 1.38402 8.83566 0.979923C17.0734 -0.395181 25.2965 -0.409717 33.4548 1.49159C35.0525 1.86517 36.59 2.58179 38.0729 3.30423C39.4203 3.96126 40.0432 5.11541 40.0255 6.68675C39.9681 11.5549 40.0049 16.4259 40.0049 21.2925L39.999 22.1458ZM67.4941 41.9627C67.5089 36.4477 66.1187 32.5536 63.309 29.126C57.4848 22.0251 47.0367 21.919 41.0505 28.8992C34.8213 36.1672 35.2631 47.0416 42.0622 53.795C46.7421 58.4465 54.0757 59.3187 59.6231 55.7123C64.9937 52.2266 67.316 47.0706 67.4941 41.9627ZM20.0113 2.18786C17.5903 2.34049 15.1679 2.44079 12.7499 2.66174C11.2651 2.8167 9.79021 3.05303 8.33203 3.36964C6.4839 3.74903 4.6505 4.21854 3.03063 5.22298C2.06165 5.81459 2.0322 6.35824 3.04978 6.84665C4.33978 7.46588 5.67839 8.07785 7.06853 8.39619C15.3343 10.2931 23.6472 10.2859 31.9453 8.63312C33.6491 8.29153 35.3014 7.5938 36.8992 6.8888C38.039 6.38295 38.0081 5.76081 36.8845 5.1692C35.9375 4.66481 34.942 4.25481 33.9127 3.94527C29.38 2.60069 24.7148 2.30124 20.0113 2.18786ZM43.5731 23.8043C43.1136 23.8407 42.8677 23.8436 42.6277 23.8799C39.3099 24.396 36.5134 25.9019 34.2132 28.2901C31.3703 31.1933 29.6643 34.9987 29.3992 39.0279C28.9 45.6505 31.0102 51.2381 36.5325 55.3082C38.5721 56.8098 40.9076 57.634 43.629 57.8636C37.4809 53.7078 34.4753 48.0111 34.4547 40.8798C34.434 33.7484 37.4161 28.0372 43.5672 23.8043H43.5731ZM37.7136 9.11426C31.9998 11.645 26.0063 12.0215 19.9922 12.0215C13.978 12.0215 7.99627 11.629 2.30022 9.12299C2.30022 10.4588 2.30022 11.7148 2.30022 12.9707C2.30022 14.0391 2.68604 14.5028 3.82879 14.7571V12.5564H6.05096C6.05096 13.4562 6.03034 14.3211 6.06568 15.1845C6.07452 15.3982 6.21294 15.7165 6.38229 15.7921C6.76075 15.9651 7.19665 16.016 7.68114 16.1337V13.8661H9.92834V15.231C9.92834 16.6526 9.92834 16.6526 11.4952 16.8125V15.1176H13.7498C13.7498 15.7281 13.5686 16.3823 13.8087 16.8023C13.9898 17.1207 14.7055 17.1527 15.3151 17.3605V15.0973H17.5668V17.3329H19.1704V15.0973H21.3926V17.4056L22.9874 17.3126V15.1714H25.2302V17.1628C25.4976 17.1495 25.7655 17.1495 26.0328 17.1628C26.6513 17.2268 26.8604 16.9593 26.7927 16.3663C26.7667 15.9437 26.7638 15.5201 26.7838 15.0973H29.0266V16.8038C29.3403 16.7718 29.5774 16.7268 29.8159 16.7268C30.4271 16.7268 30.6804 16.484 30.62 15.8444C30.5596 15.2048 30.6067 14.5129 30.6067 13.8559H32.8878V16.1351C33.1012 16.0724 33.3187 16.0238 33.5387 15.9898C34.275 15.9331 34.5003 15.5421 34.4385 14.8356C34.3737 14.0972 34.4237 13.3501 34.4237 12.568H36.6945V14.7906L36.9154 14.9054C37.1834 14.5958 37.6694 14.2963 37.6856 13.9736C37.7577 12.3849 37.7136 10.7874 37.7136 9.11426ZM3.85088 22.4249V20.1166H6.11281C6.11281 21.0018 6.15109 21.8463 6.09955 22.6865C6.06421 23.2432 6.2851 23.4802 6.80493 23.5587C7.06706 23.5936 7.32476 23.6648 7.6885 23.7404V21.4146H9.92834C9.92834 22.2141 9.94012 22.9627 9.92834 23.7099C9.9195 24.0892 10.027 24.3 10.4541 24.3102C10.8102 24.3371 11.1646 24.3827 11.5158 24.4468V22.6371H13.7601V24.6983L15.3137 24.8437V22.5862H17.5579V23.6939C17.5579 25.0675 17.5579 25.0675 18.9716 24.973C19.0114 24.973 19.0482 24.9207 19.1484 24.8509V22.6298H21.3941V25.0094L22.9889 24.9352V22.7229H25.2185V24.848L26.8015 24.6852V22.6415H29.0517V24.4294C29.2461 24.3933 29.443 24.371 29.6407 24.3625C30.4963 24.393 30.6951 23.9439 30.617 23.188C30.5567 22.5993 30.6053 21.999 30.6053 21.4044H32.8628V23.72C33.0474 23.6736 33.2348 23.6387 33.4238 23.6154C34.275 23.5805 34.5106 23.1255 34.4385 22.3377C34.3707 21.6109 34.4237 20.8623 34.4237 20.1267H36.6901V22.3856L36.8859 22.5121C37.1643 22.201 37.665 21.903 37.6841 21.5774C37.7695 20.0584 37.7209 18.5336 37.7209 16.9564C31.9556 19.2022 25.9872 19.6587 19.9657 19.6238C13.9441 19.5889 7.99038 19.1877 2.29433 16.7021V20.4959C2.29874 21.6588 2.56676 22.0077 3.85088 22.4249ZM33.2427 26.0589C31.4417 26.3205 29.7791 26.6069 28.1048 26.7973C22.175 27.4777 16.1804 27.3873 10.2744 26.5284C7.55596 26.1345 4.88907 25.5341 2.30169 24.2361C2.30169 25.6126 2.30169 26.886 2.30169 28.1608C2.30169 29.2626 2.60652 29.6275 3.85529 29.9792V27.6636H6.11722C6.11722 28.6172 6.09955 29.533 6.13195 30.4487C6.13195 30.6392 6.27921 30.9226 6.43678 30.9924C6.79757 31.1523 7.20695 31.2061 7.69881 31.3282V28.9515H9.9357V31.802L11.4996 32.0361V30.174H13.7468V32.2919L15.3387 32.446V30.1638H17.5476V32.5303H19.1439V30.1682H21.3838V32.5376H22.9919V30.1667H25.2008V32.4533C26.423 32.3297 27.557 32.225 28.6968 32.0899C28.7752 32.0653 28.8476 32.0248 28.9092 31.971C28.9709 31.9172 29.0204 31.8512 29.0546 31.7773C30.094 29.639 31.5123 27.7014 33.2427 26.056V26.0589ZM3.8494 50.2947H6.11281C6.11281 51.289 6.08335 52.2527 6.13489 53.2121C6.14815 53.4403 6.3926 53.7296 6.61055 53.8531C6.89329 54.013 7.25555 54.0348 7.67819 54.1439V51.539H9.94454V54.6105L11.5026 54.8401V52.8167H13.7527V55.0916L15.3151 55.2559V52.808H17.5874V55.3547H19.1439V52.8095H21.397V55.3256H22.9727V52.8545H25.2111V55.2515L26.8015 55.0756V52.8632H29.0399V54.8619L31.9262 54.3706C31.1722 53.2543 30.296 52.2644 29.7821 51.116C29.193 49.7874 28.442 49.504 27.0003 49.6799C22.4117 50.238 17.795 50.1654 13.1975 49.6988C9.5381 49.3266 5.8978 48.8121 2.54173 47.1637C2.49313 47.1404 2.41508 47.1724 2.30169 47.1826C2.30169 48.4312 2.30169 49.6639 2.30169 50.8965C2.30169 52.0594 2.59621 52.4257 3.85088 52.7862L3.8494 50.2947ZM27.8323 34.497C26.1329 34.593 24.3526 34.731 22.5692 34.7877C17.4313 34.9578 12.3199 34.6991 7.29531 33.558C5.61801 33.1771 3.99519 32.5536 2.30169 32.0259V35.6424C2.30169 36.8155 2.61388 37.224 3.86118 37.6092V35.1773C4.45023 35.1773 4.95533 35.1773 5.46633 35.1773C5.6563 35.1773 5.84774 35.2006 6.11428 35.218V37.1949C6.11428 38.6092 6.11428 38.6107 7.49117 38.9058C7.52946 38.9145 7.57511 38.8825 7.67966 38.8505V36.4623H9.93276V39.4131L11.5217 39.6282V37.7298H13.7395V38.6543C13.7395 40.0105 13.7395 40.0105 15.1473 39.9844C15.1856 39.9844 15.2224 39.9364 15.3446 39.8535V37.7298H17.5844V40.1297H19.1557V37.7211H21.4103V40.1922L22.9816 40.1195V37.7182H25.2273V40.0134C25.7309 39.9829 26.158 40.0134 26.5526 39.9117C26.672 39.8732 26.7807 39.8078 26.8701 39.7208C26.9596 39.6338 27.0273 39.5274 27.0681 39.4102C27.3478 37.7938 27.5776 36.1716 27.8323 34.497ZM26.9723 42.1851C18.6256 42.6648 10.323 42.7287 2.30316 39.5788C2.30316 40.8434 2.30316 42.0761 2.30316 43.3087C2.30316 44.4091 2.67721 44.8757 3.86118 45.1722V42.7535H6.11428C6.11428 43.7245 6.13342 44.6649 6.10544 45.604C6.09366 46.0212 6.23209 46.229 6.65325 46.2944C6.97428 46.3438 7.28648 46.4485 7.70028 46.5546V43.9512H9.92392V45.6636C9.92392 47.0968 9.92392 47.0968 11.3656 47.216C11.3848 47.216 11.4068 47.2015 11.5026 47.1622V45.2609H13.7498V47.5082L15.3269 47.6245V45.2653H17.5741V47.7364H19.1439V45.2653H21.3897V47.7495H22.9727V45.2784H25.2361V47.6623L27.9369 47.3875C27.61 45.6054 27.2963 43.9236 26.9709 42.1851H26.9723Z" fill="#2E3844"/>
<path d="M51.6887 27.8893C51.6416 27.1131 51.6004 26.424 51.5518 25.5999L54.0419 25.7452C53.9212 26.5098 53.8137 27.1886 53.7032 27.882L51.6887 27.8893Z" fill="#2A6EDB"/>
<path d="M60.6027 28.9446L62.4464 30.5435L60.694 31.9797L59.1816 30.561L60.6027 28.9446Z" fill="#2A6EDB"/>
<path d="M40.4493 40.457V42.4921L38.2875 42.7639C38.2344 41.9906 38.1844 41.2565 38.1299 40.457H40.4493Z" fill="#2A6EDB"/>
<path d="M63.7083 39.5703C63.589 38.829 63.4918 38.217 63.3828 37.5353L65.5652 37.0134C65.7007 37.8071 65.8259 38.5484 65.9628 39.361L63.7083 39.5703Z" fill="#2A6EDB"/>
<path d="M38.982 35.6648L41.1247 36.3625C40.9553 37.0384 40.7933 37.6708 40.621 38.3612L38.4121 37.9891L38.982 35.6648Z" fill="#2A6EDB"/>
<path d="M46.7715 26.7657L49.0938 25.9575C49.2867 26.7192 49.4619 27.4024 49.6431 28.1176L47.7125 28.7819C47.4062 28.1248 47.1058 27.4838 46.7715 26.7657Z" fill="#2A6EDB"/>
<path d="M39.5297 47.369C39.2528 46.6102 39.0025 45.9154 38.7168 45.1319L40.8918 44.5417C41.123 45.1842 41.3425 45.7875 41.5913 46.4779L39.5297 47.369Z" fill="#2A6EDB"/>
<path d="M59.5156 50.8213L60.9131 49.3066L62.695 50.657L61.0751 52.4493L59.5156 50.8213Z" fill="#2A6EDB"/>
<path d="M39.918 33.4405L41.1579 31.3982C41.7867 31.8343 42.3713 32.2413 43.0002 32.6759L41.9369 34.4449L39.918 33.4405Z" fill="#2A6EDB"/>
<path d="M45.3063 51.3853L47.019 52.5118L45.9454 54.4553L43.8838 53.1267L45.3063 51.3853Z" fill="#2A6EDB"/>
<path d="M58.6823 27.4214L57.5352 29.3358L55.6826 28.4724L56.4543 26.3821L58.6823 27.4214Z" fill="#2A6EDB"/>
<path d="M64.8528 34.7197L62.7691 35.5454L61.834 33.7109L63.7749 32.5728L64.8528 34.7197Z" fill="#2A6EDB"/>
<path d="M63.7387 41.6636L65.9903 41.7668C65.8872 42.5619 65.7915 43.3047 65.6855 44.126L63.4766 43.7059C63.5664 43.0271 63.6489 42.3744 63.7387 41.6636Z" fill="#2A6EDB"/>
<path d="M62.0518 47.5783L62.9088 45.7031L65.022 46.4517L64.0368 48.6394L62.0518 47.5783Z" fill="#2A6EDB"/>
<path d="M40.6553 49.5087L42.5579 48.3254C42.9776 48.8662 43.3708 49.3749 43.8184 49.9549L42.1161 51.4347L40.6553 49.5087Z" fill="#2A6EDB"/>
<path d="M56.0781 53.0293L57.8835 52.0771L59.1205 53.945L56.947 55.0919C56.6362 54.352 56.3609 53.6994 56.0781 53.0293Z" fill="#2A6EDB"/>
<path d="M48.907 53.3169L50.8817 53.7399C50.8007 54.4565 50.7198 55.163 50.6314 55.9523L48.2148 55.4377L48.907 53.3169Z" fill="#2A6EDB"/>
<path d="M44.6201 27.9739L45.9219 29.7894L44.3933 31.0831L42.7734 29.5147L44.6201 27.9739Z" fill="#2A6EDB"/>
<path d="M52.1504 53.8115L54.1119 53.6152C54.2592 54.342 54.3932 55.0078 54.5537 55.7956L52.1519 56.0442L52.1504 53.8115Z" fill="#2A6EDB"/>
</svg>
