<svg width="73" height="95" viewBox="0 0 73 95" fill="none" xmlns="http://www.w3.org/2000/svg">
<path d="M45.0237 94.7729C42.0734 87.7674 39.1861 80.9013 36.1729 73.7583C33.1715 80.8761 30.2724 87.7713 27.3221 94.7787C25.9454 93.7428 24.6472 92.7747 23.357 91.8027C21.1187 90.1181 18.8333 88.48 16.6698 86.7257C15.6509 85.9066 14.5652 85.5445 13.2986 85.3935C9.13874 84.8978 4.98478 84.3382 0.83082 83.798C0.634137 83.7728 0.455154 83.7089 0.164062 83.6392C0.419751 83.006 0.649871 82.4213 0.893759 81.8423C3.90958 74.6703 6.93064 67.5001 9.95694 60.3319C10.0881 60.0625 10.1522 59.7662 10.144 59.4676C10.1358 59.1689 10.0555 58.8765 9.90974 58.6144C9.17665 57.1019 8.16498 55.7363 6.92605 54.5869C4.96904 52.7552 3.12415 50.8189 1.20649 48.9736C1.01267 48.8096 0.867559 48.597 0.786531 48.3584C0.705504 48.1197 0.691583 47.864 0.746246 47.6182C1.25566 44.3265 1.82604 41.0599 2.16827 37.7605C2.31972 36.3199 2.04829 34.8212 1.85161 33.3651C1.52905 30.9989 1.09438 28.6521 0.777716 26.2879C0.74711 25.8366 0.899136 25.3918 1.20059 25.0506C3.59619 22.5741 6.04687 20.1498 8.46018 17.6926C8.84323 17.3 9.16711 16.8553 9.42196 16.3721C10.905 13.5722 12.367 10.7613 13.808 7.93949C13.9171 7.67775 14.0957 7.44975 14.3252 7.2794C14.5546 7.10905 14.8264 7.00264 15.112 6.97134C18.5383 6.42724 21.9566 5.84635 25.375 5.25384C25.8871 5.16548 26.3838 5.00574 26.8501 4.77944C29.6548 3.39305 32.4753 2.02409 35.2505 0.566051C36.0097 0.17879 36.5879 0.20009 37.3314 0.577668C40.0653 1.96406 42.8661 3.22847 45.5823 4.6439C47.6809 5.73985 50.0057 5.70693 52.2321 6.15034C54.0023 6.50275 55.7941 6.68089 57.5603 7.02168C58.0077 7.132 58.3937 7.4099 58.6362 7.7962C60.2726 10.7704 61.8382 13.7832 63.4588 16.7671C63.7667 17.3335 64.1533 17.8548 64.6075 18.3161C66.83 20.5545 69.0722 22.7735 71.3341 24.9731C71.7274 25.3604 71.9143 25.7147 71.8179 26.3131C71.2711 29.719 70.6378 33.1211 70.3369 36.5503C70.1854 38.2426 70.6417 39.993 70.8777 41.7105C71.1531 43.6894 71.456 45.6664 71.8179 47.6317C71.9261 48.2301 71.7392 48.5805 71.3419 48.9871C68.8971 51.4172 66.4248 53.8279 64.0764 56.3451C63.2799 57.199 62.7882 58.3395 62.2296 59.387C62.1155 59.602 62.2787 60.0028 62.3968 60.2835C65.5319 67.7577 68.6723 75.2279 71.8179 82.6943C71.9398 82.9828 72.0539 83.2752 72.2113 83.6837C70.2818 83.9393 68.4428 84.1872 66.6018 84.4273C63.5828 84.8145 60.5617 85.2018 57.5544 85.6239C57.1771 85.7116 56.827 85.8876 56.5336 86.137C52.9854 88.7911 49.4451 91.4528 45.9127 94.1223C45.6511 94.3082 45.3895 94.496 45.0237 94.7729ZM47.0456 65.6897C50.0706 65.1901 52.9756 64.7215 55.8727 64.2065C56.154 64.1542 56.4628 63.8192 56.6123 63.5443C57.7432 61.4376 58.823 59.3018 59.9559 57.1951C60.2293 56.6859 60.1388 56.4206 59.6805 56.0856C58.5004 55.2317 57.3597 54.3217 56.1579 53.398L57.9989 51.0648L61.7556 53.9054C63.9387 51.8684 66.0197 49.905 68.132 47.9745C68.6041 47.5427 68.6926 47.0954 68.5943 46.5106C68.2009 44.158 67.8075 41.8054 67.4673 39.4431C67.3847 38.8622 67.1585 38.7112 66.5979 38.6976C65.172 38.6609 63.748 38.5582 62.3849 38.4846V35.7254C63.8384 35.7254 65.2015 35.7119 66.5664 35.7254C67.0208 35.7254 67.3709 35.7796 67.4555 35.1445C67.8154 32.5247 68.252 29.9165 68.5884 27.2948C68.6036 26.8371 68.4379 26.3915 68.1261 26.0517C66.8044 24.6614 65.404 23.3408 64.0607 21.9854C63.5454 21.4607 63.1068 20.8604 62.6564 20.3241L57.9871 23.517L56.2701 21.085L60.6915 18.0334C59.2734 15.3671 57.9104 12.7648 56.4903 10.1953C56.3448 9.93001 55.8688 9.76348 55.5187 9.70346C53.1585 9.30071 50.7983 8.96185 48.4381 8.55136C47.7635 8.43518 47.435 8.6017 47.2069 9.24649C46.727 10.6019 46.1684 11.9283 45.6236 13.3127L42.8326 12.2265C43.4581 10.6251 44.054 9.10321 44.6775 7.51157C41.9239 6.16971 39.251 4.8414 36.5466 3.56151C36.3244 3.45695 35.9172 3.60798 35.6458 3.74159C33.4823 4.80268 31.3306 5.90444 29.1552 6.95585C28.5868 7.2308 28.398 7.4922 28.6222 8.13893C29.0962 9.49434 29.4601 10.8885 29.883 12.3117L27.0114 13.1501L25.5048 8.2764C22.4995 8.77403 19.5669 9.25424 16.6383 9.76929C16.5172 9.80142 16.4039 9.85702 16.3049 9.93283C16.206 10.0086 16.1234 10.1031 16.062 10.2108C14.7737 12.6331 13.5051 15.069 12.2129 17.5571L16.1643 20.5545L14.343 22.8994L10.4762 20.0317C10.2421 20.235 10.0395 20.3918 9.8586 20.5719C8.04518 22.3824 6.24946 24.2218 4.4144 26.0149C3.95612 26.4621 3.86958 26.9017 3.96793 27.4826C4.36129 29.7403 4.75466 31.9961 5.04772 34.2596C5.14999 35.0671 5.45289 35.2685 6.21602 35.2413C7.60854 35.1891 9.00303 35.2259 10.3739 35.2259V38.1768C8.88895 38.1768 7.4866 38.2039 6.08818 38.1632C5.45879 38.1439 5.16376 38.2697 5.07722 38.9649C4.8235 41.0135 4.58945 43.0717 4.13707 45.0816C3.77321 46.7004 4.09577 47.8486 5.40765 48.9542C7.06569 50.3484 8.53099 51.9652 10.0966 53.5007L14.3843 50.5827C14.9743 51.4308 15.5231 52.1879 16.1053 53.0088L11.8648 55.9288C13.2888 58.6067 14.6538 61.2071 16.0699 63.7805C16.2036 64.0245 16.6324 64.189 16.951 64.2433C19.3112 64.6441 21.6714 64.9907 24.0316 65.3934C24.6217 65.4961 24.9088 65.3489 25.0977 64.7641C25.5599 63.3274 26.0968 61.912 26.6239 60.4307L29.4542 61.4182L27.7234 66.379C30.477 67.7247 33.1735 69.0511 35.8838 70.331C36.1434 70.453 36.5879 70.3833 36.8672 70.2458C39.0701 69.1808 41.2415 68.0539 43.4502 66.9986C44.0737 66.7004 44.1229 66.3848 43.9203 65.7923C43.4561 64.4369 43.0745 63.0447 42.6438 61.6157L45.5115 60.7676C46.0189 62.4173 46.5165 64.007 47.0456 65.6897ZM4.4026 81.2479C7.74622 81.6797 10.8932 82.0553 14.0401 82.5142C14.7757 82.6207 15.0727 82.4077 15.3598 81.7862C16.182 80.0106 17.0769 78.2679 17.958 76.4788L20.6605 77.7741C19.6771 79.7995 18.7133 81.7629 17.722 83.796L26.0398 90.06C28.5317 84.133 30.9765 78.3221 33.4311 72.4861C31.2676 71.4289 29.2339 70.3755 27.1491 69.4519C26.0489 68.9563 24.8928 68.591 23.7051 68.3637C20.8434 67.8351 17.9541 67.4556 15.0904 66.9483C14.6144 66.832 14.2002 66.5438 13.93 66.1408C13.2947 65.1475 12.7813 64.0767 12.1362 62.8801L4.4026 81.2479ZM67.9452 81.2479L60.2922 63.0621C59.7022 64.2045 59.2262 65.1921 58.648 66.1331C58.4048 66.5195 58.0274 66.8058 57.5859 66.9386C56.3448 67.2213 55.0722 67.3704 53.8154 67.5815C51.3628 67.9939 48.8079 68.1159 46.489 68.9078C43.8908 69.7946 41.505 71.2875 38.9501 72.5558C41.4126 78.4093 43.8455 84.1891 46.3159 90.0658L54.734 83.7186L51.9312 77.9736L54.6336 76.6879C55.5128 78.4732 56.3743 80.1732 57.1905 81.8927C57.4344 82.4097 57.6999 82.5936 58.3038 82.5103C61.4468 82.0708 64.5976 81.6797 67.9452 81.2459V81.2479Z" fill="white"/>
<path d="M13.1006 43.923C13.2756 42.2539 13.3523 40.9295 13.5648 39.6263C14.0407 36.7083 13.5195 33.8368 13.2107 30.9594C13.1026 29.9564 13.252 29.1916 14.0191 28.4577C17.1228 25.4894 19.5262 22.0099 21.5757 18.2767C21.7999 17.87 22.3447 17.5215 22.8109 17.386C24.0039 17.039 25.2196 16.7724 26.4495 16.5882C29.6122 16.1235 32.3874 14.6325 35.2609 13.4088C35.6036 13.2441 35.9806 13.1603 36.362 13.164C36.7433 13.1676 37.1185 13.2588 37.4579 13.4301C39.6844 14.4157 41.9344 15.4071 44.2533 16.168C46.0746 16.7644 48.0178 16.9871 49.8903 17.446C50.3072 17.5486 50.6495 17.9436 51.0232 18.2108C51.0692 18.2568 51.1042 18.3124 51.1254 18.3735C53.167 22.275 55.7852 25.8567 58.8945 29.0018C59.2284 29.4061 59.3974 29.9183 59.3685 30.4386C59.2603 32.2064 58.8945 33.9684 58.8925 35.7324C58.9119 38.0491 59.0504 40.3634 59.3075 42.6663C59.4275 43.8552 59.3291 44.7962 58.3732 45.6889C55.3168 48.5662 53.0018 51.9993 51.0409 55.6686C50.9226 55.9297 50.7375 56.1561 50.5038 56.3258C50.2701 56.4955 49.9957 56.6026 49.7074 56.6367C48.5155 56.8304 47.3471 57.1866 46.1533 57.3628C42.9591 57.8372 40.1525 59.3359 37.2494 60.5732C36.5413 60.8753 35.9533 60.9605 35.2354 60.5849C31.2899 58.5575 27.0848 57.2931 22.7145 56.5186C22.4582 56.4586 22.2166 56.349 22.0039 56.1961C21.7911 56.0431 21.6115 55.85 21.4754 55.6279C19.4173 51.7349 16.7942 48.1578 13.6887 45.0092C13.3445 44.6588 13.2029 44.1185 13.1006 43.923ZM56.2569 31.6081L56.4929 31.4822C56.2058 30.9246 56.0327 30.2643 55.6157 29.8286C53.0883 27.1836 50.8855 24.316 49.2353 21.063C48.8852 20.3737 48.3778 20.0794 47.6618 19.9651C44.0086 19.3796 40.4704 18.237 37.1747 16.5785C36.9256 16.4328 36.6422 16.3535 36.3525 16.3484C36.0628 16.3433 35.7768 16.4126 35.5225 16.5495C32.1228 18.2246 28.4869 19.3878 24.7364 20C24.2191 20.1292 23.7746 20.4542 23.4993 20.9042C21.7291 23.9694 19.8567 26.9552 17.2231 29.3852C16.3459 30.1927 16.2613 31.064 16.3577 32.1541C16.5544 34.3286 16.6488 36.5147 16.6586 38.695C16.6586 39.9787 16.3636 41.2586 16.3203 42.5463C16.3028 43.0682 16.4766 43.5788 16.81 43.9849C19.4023 46.6958 21.6681 49.6447 23.3675 52.9849C23.4967 53.2592 23.6967 53.4953 23.9476 53.6696C24.1986 53.8439 24.4916 53.9503 24.7974 53.9782C28.5108 54.595 32.1124 55.7445 35.4871 57.39C35.9788 57.5846 36.5287 57.5805 37.0173 57.3783C40.4386 55.7526 44.0726 54.6025 47.8153 53.9608C48.0714 53.8985 48.3124 53.7868 48.5244 53.6323C48.7364 53.4777 48.9152 53.2834 49.0504 53.0604C50.8375 49.7925 53.0695 46.7802 55.6846 44.1069C56.0307 43.7545 56.2196 43.0904 56.2038 42.5772C56.1389 40.2014 55.9068 37.8294 55.8754 35.4536C55.8596 34.166 56.1212 32.8899 56.2569 31.6081Z" fill="white"/>
<path d="M51.8329 31.374C49.6281 33.7421 47.5728 35.9901 45.4623 38.1917C44.9215 38.7552 44.7012 39.2857 44.8074 40.0699C45.1555 42.6588 45.4269 45.2573 45.7239 47.8519C45.7751 48.2934 45.8026 48.7387 45.8518 49.3138C45.2893 49.0834 44.8408 48.913 44.4042 48.7194C41.9614 47.6254 39.5107 46.5488 37.0875 45.4161C36.8336 45.2843 36.5502 45.2169 36.2632 45.22C35.9761 45.223 35.6943 45.2964 35.4433 45.4335C32.6012 46.7385 29.7394 47.9991 26.683 49.3622C26.8659 47.6893 27.0272 46.177 27.1963 44.6667C27.393 42.9686 27.6192 41.2743 27.7569 39.5723C27.7501 39.1742 27.5963 38.7922 27.3242 38.4976C25.5344 36.5265 23.7052 34.5883 21.8898 32.6365C21.5397 32.2608 21.1994 31.8755 20.7471 31.3759L26.4116 30.2141C27.6625 29.9605 28.9055 29.6546 30.1663 29.4784C30.8782 29.3796 31.2382 29.0311 31.5627 28.4541C33.087 25.7432 34.6467 23.0692 36.2674 20.2499C36.9853 21.4795 37.6442 22.6045 38.2991 23.7353C39.2373 25.3598 40.1361 27.0076 41.1274 28.6012C41.4066 29.0052 41.8264 29.2945 42.3075 29.4145C45.3994 30.0999 48.5109 30.7021 51.8329 31.374ZM45.9776 33.2425C44.0364 32.8553 42.2938 32.4525 40.5354 32.1582C40.2005 32.1182 39.8817 31.9941 39.6095 31.7977C39.3374 31.6014 39.1212 31.3395 38.9816 31.0371C38.1339 29.4667 37.2115 27.939 36.2674 26.2835C35.3036 27.97 34.3733 29.4938 33.5492 31.0681C33.1912 31.7438 32.7251 32.0362 31.9757 32.1679C30.2194 32.4699 28.4807 32.863 26.5669 33.2541C27.9437 34.7412 29.2241 36.0676 30.4278 37.4617C30.7349 37.84 30.8947 38.3138 30.8782 38.7978C30.7366 40.6547 30.4849 42.5019 30.2705 44.4924C32.1115 43.6676 33.8108 42.8621 35.5633 42.1514C36.0257 41.9861 36.5331 41.9895 36.9931 42.1611C38.7338 42.8679 40.4351 43.6676 42.2721 44.4847C42.0558 42.5484 41.8984 40.7515 41.6388 38.972C41.5326 38.2498 41.7411 37.7735 42.2289 37.27C43.4778 35.9959 44.6579 34.6754 45.9776 33.2425Z" fill="white"/>
</svg>
