<svg width="111" height="105" viewBox="0 0 111 105" fill="none" xmlns="http://www.w3.org/2000/svg">
<g filter="url(#filter0_d)">
<path d="M77.2459 30H33.8533C32.9876 30 32.1572 30.3437 31.545 30.9555C30.9328 31.5673 30.5889 32.397 30.5889 33.2622V71.1125C30.5889 71.9777 30.9328 72.8075 31.545 73.4193C32.1572 74.031 32.9876 74.3747 33.8533 74.3747H41.8457V72.7118H49.2703V74.3747H80.5103V33.2622C80.5103 32.8338 80.4259 32.4096 80.2618 32.0138C80.0978 31.618 79.8573 31.2584 79.5542 30.9555C79.2511 30.6525 78.8912 30.4123 78.4951 30.2483C78.0991 30.0844 77.6746 30 77.2459 30Z" fill="white"/>
</g>
<path d="M86.3441 47.9298H80.373V74.3747H85.4043V72.3547H94.3804V74.3747H100.581V62.1769C100.581 58.4017 99.0821 54.7809 96.4126 52.1096C93.7431 49.4383 90.1218 47.935 86.3441 47.9298Z" fill="#56AAFF"/>
<path d="M83.281 74.3748H50.8174V78.7765H83.281V74.3748Z" fill="#0278ED"/>
<path d="M30.2024 74.3748H39.8833V78.7765H30.2024C29.6183 78.7765 29.0581 78.5446 28.6451 78.1319C28.232 77.7191 28 77.1593 28 76.5756C28 75.9919 28.232 75.4321 28.6451 75.0194C29.0581 74.6066 29.6183 74.3748 30.2024 74.3748Z" fill="#0278ED"/>
<path d="M101.884 78.7766H94.4051V74.3749H101.884C102.468 74.3749 103.028 74.6067 103.441 75.0195C103.854 75.4322 104.086 75.992 104.086 76.5757C104.086 77.1594 103.854 77.7192 103.441 78.132C103.028 78.5447 102.468 78.7766 101.884 78.7766Z" fill="#0278ED"/>
<path d="M36.9514 64.3973H30.5889V68.4714H36.9514V64.3973Z" fill="#56AAFF"/>
<path d="M45.0613 69.161C43.5929 69.161 42.1574 69.5962 40.9364 70.4114C39.7155 71.2267 38.7638 72.3854 38.2019 73.7412C37.6399 75.0969 37.4929 76.5887 37.7794 78.0279C38.0659 79.4671 38.773 80.7891 39.8113 81.8268C40.8497 82.8644 42.1726 83.571 43.6128 83.8573C45.0531 84.1436 46.5459 83.9967 47.9026 83.4351C49.2592 82.8735 50.4188 81.9226 51.2346 80.7025C52.0505 79.4823 52.4859 78.0479 52.4859 76.5804C52.4859 74.6127 51.7037 72.7255 50.3113 71.3341C48.9189 69.9427 47.0304 69.161 45.0613 69.161ZM45.0613 79.9943C44.3837 79.9943 43.7213 79.7935 43.1579 79.4173C42.5945 79.0411 42.1554 78.5064 41.8961 77.8808C41.6368 77.2552 41.569 76.5669 41.7012 75.9027C41.8333 75.2386 42.1596 74.6286 42.6388 74.1498C43.1179 73.671 43.7284 73.3449 44.3929 73.2128C45.0575 73.0807 45.7464 73.1485 46.3724 73.4077C46.9984 73.6668 47.5335 74.1056 47.9099 74.6686C48.2864 75.2316 48.4873 75.8935 48.4873 76.5707C48.4873 77.4787 48.1263 78.3495 47.4838 78.9915C46.8413 79.6336 45.9699 79.9943 45.0613 79.9943Z" fill="#0278ED"/>
<path d="M84.2598 52.1655H85.1309C86.6285 52.1655 88.1114 52.4603 89.4949 53.033C90.8785 53.6057 92.1356 54.4451 93.1946 55.5032C94.2535 56.5614 95.0935 57.8177 95.6665 59.2003C96.2396 60.5829 96.5346 62.0647 96.5346 63.5612H84.2598V52.1655Z" fill="white"/>
<path d="M100.602 67.1361H96.4268V71.176H100.602V67.1361Z" fill="#0278ED"/>
<path d="M89.5994 69.161C88.131 69.161 86.6955 69.5962 85.4745 70.4114C84.2535 71.2267 83.3019 72.3854 82.74 73.7412C82.178 75.0969 82.031 76.5887 82.3175 78.0279C82.604 79.4671 83.3111 80.7891 84.3494 81.8268C85.3878 82.8644 86.7107 83.571 88.1509 83.8573C89.5912 84.1436 91.084 83.9967 92.4407 83.4351C93.7973 82.8735 94.9569 81.9226 95.7727 80.7025C96.5886 79.4823 97.024 78.0479 97.024 76.5804C97.024 74.6127 96.2418 72.7255 94.8494 71.3341C93.457 69.9427 91.5685 69.161 89.5994 69.161ZM89.5994 79.9943C88.9218 79.9943 88.2594 79.7935 87.696 79.4173C87.1326 79.0411 86.6935 78.5064 86.4342 77.8808C86.1749 77.2552 86.107 76.5669 86.2392 75.9027C86.3714 75.2386 86.6977 74.6286 87.1769 74.1498C87.656 73.671 88.2664 73.3449 88.931 73.2128C89.5956 73.0807 90.2844 73.1485 90.9105 73.4077C91.5365 73.6668 92.0715 74.1056 92.448 74.6686C92.8245 75.2316 93.0254 75.8935 93.0254 76.5707C93.0254 77.4787 92.6644 78.3495 92.0219 78.9915C91.3794 79.6336 90.508 79.9943 89.5994 79.9943Z" fill="#0278ED"/>
<defs>
<filter id="filter0_d" x="0.588867" y="0" width="109.921" height="104.375" filterUnits="userSpaceOnUse" color-interpolation-filters="sRGB">
<feFlood flood-opacity="0" result="BackgroundImageFix"/>
<feColorMatrix in="SourceAlpha" type="matrix" values="0 0 0 0 0 0 0 0 0 0 0 0 0 0 0 0 0 0 127 0"/>
<feOffset/>
<feGaussianBlur stdDeviation="15"/>
<feColorMatrix type="matrix" values="0 0 0 0 0.164706 0 0 0 0 0.431373 0 0 0 0 0.858824 0 0 0 1 0"/>
<feBlend mode="normal" in2="BackgroundImageFix" result="effect1_dropShadow"/>
<feBlend mode="normal" in="SourceGraphic" in2="effect1_dropShadow" result="shape"/>
</filter>
</defs>
</svg>
