<svg width="78" height="67" viewBox="0 0 78 67" fill="none" xmlns="http://www.w3.org/2000/svg">
<path d="M59.8669 0.471147L24.139 8.34057C22.9577 8.60078 22.2111 9.76872 22.4715 10.9493L29.4546 42.6092C29.715 43.7897 30.8838 44.5358 32.0651 44.2756L67.793 36.4062C68.9744 36.146 69.721 34.978 69.4606 33.7975L62.4775 2.13754C62.2171 0.957009 61.0483 0.210942 59.8669 0.471147Z" fill="#244BAB"/>
<path d="M36.9395 5.60493L47.408 3.29913L49.0112 10.5679C49.1363 11.1348 49.0309 11.7281 48.7181 12.2173C48.4054 12.7066 47.911 13.0516 47.3437 13.1766L41.1532 14.5401C40.5859 14.665 39.9922 14.5597 39.5026 14.2472C39.013 13.9346 38.6677 13.4406 38.5427 12.8737L36.9395 5.60493Z" fill="#0278ED"/>
<path d="M29 53.1474L72.638 43.4079C73.1229 43.2997 73.6107 43.2978 73.9941 43.4025C74.3775 43.5073 74.6251 43.7101 74.6824 43.9665L75.4225 47.278C75.4798 47.5344 75.3421 47.8232 75.0397 48.081C74.7374 48.3388 74.2951 48.5445 73.8102 48.6527L32.0006 57.9841C31.5157 58.0923 31.0278 58.0943 30.6444 57.9895C30.261 57.8848 30.0135 57.6819 29.9562 57.4256L29 53.1474Z" fill="#2E3844"/>
<path d="M72.2161 44.8733L72.2106 44.8745C70.8133 45.1864 69.9336 46.571 70.2457 47.9673L71.4399 53.3106C71.752 54.7069 73.1376 55.5859 74.5349 55.2741L74.5404 55.2729C75.9376 54.961 76.8173 53.5763 76.5052 52.1801L75.311 46.8368C74.9989 45.4405 73.6133 44.5614 72.2161 44.8733Z" fill="#2E3844"/>
<path d="M10.8255 3.41453L10.8199 3.41571C9.41987 3.71463 8.48421 4.88913 8.73006 6.03904L18.8772 53.4999C19.1231 54.6498 20.4573 55.3397 21.8574 55.0408L21.8629 55.0396C23.2629 54.7407 24.1986 53.5662 23.9528 52.4163L13.8056 4.9554C13.5598 3.80549 12.2255 3.11562 10.8255 3.41453Z" fill="#2E3844"/>
<path d="M14.0454 5.44648L14.0461 5.44087C14.2404 4.02346 13.2481 2.71703 11.8297 2.52286L3.27264 1.35151C1.85423 1.15735 0.546885 2.14898 0.352588 3.5664L0.351819 3.572C0.157522 4.98942 1.14986 6.29585 2.56826 6.49001L11.1253 7.66137C12.5437 7.85553 13.8511 6.8639 14.0454 5.44648Z" fill="#0278ED"/>
<path d="M25.1681 49.8399C23.47 49.8399 21.81 50.3431 20.398 51.2859C18.986 52.2287 17.8855 53.5687 17.2357 55.1365C16.5858 56.7043 16.4158 58.4295 16.7471 60.0938C17.0784 61.7582 17.8961 63.287 19.0969 64.487C20.2977 65.6869 21.8276 66.5041 23.4931 66.8351C25.1586 67.1662 26.885 66.9963 28.4539 66.3469C30.0228 65.6975 31.3637 64.5978 32.3072 63.1868C33.2506 61.7758 33.7542 60.1169 33.7542 58.4199C33.7542 57.2932 33.5321 56.1775 33.1006 55.1365C32.6691 54.0955 32.0367 53.1496 31.2394 52.3529C30.4421 51.5562 29.4956 50.9242 28.4539 50.493C27.4122 50.0618 26.2957 49.8399 25.1681 49.8399ZM25.1681 62.3678C24.3845 62.3678 23.6185 62.1356 22.967 61.7006C22.3155 61.2655 21.8077 60.6472 21.5078 59.9237C21.2079 59.2003 21.1295 58.4042 21.2823 57.6362C21.4352 56.8682 21.8126 56.1628 22.3666 55.6091C22.9207 55.0554 23.6267 54.6783 24.3952 54.5255C25.1637 54.3728 25.9604 54.4512 26.6843 54.7508C27.4082 55.0505 28.027 55.558 28.4623 56.209C28.8977 56.8601 29.13 57.6256 29.13 58.4086C29.13 59.4587 28.7126 60.4657 27.9696 61.2082C27.2266 61.9507 26.2189 62.3678 25.1681 62.3678Z" fill="#0278ED"/>
</svg>
