<svg width="71" height="70" viewBox="0 0 71 70" fill="none" xmlns="http://www.w3.org/2000/svg">
<path d="M49.9276 0H34.9241V16.1392C34.9241 16.9089 34.6182 17.647 34.0736 18.1912C33.529 18.7354 32.7904 19.0411 32.0202 19.0411H21.2952C20.525 19.0411 19.7864 18.7354 19.2418 18.1912C18.6973 17.647 18.3913 16.9089 18.3913 16.1392V0H3.96865C2.9161 0 1.90665 0.417834 1.16239 1.16158C0.418121 1.90533 0 2.91407 0 3.96589V46.3332C0 47.385 0.418121 48.3938 1.16239 49.1375C1.90665 49.8813 2.9161 50.2991 3.96865 50.2991H49.913C50.9656 50.2991 51.975 49.8813 52.7193 49.1375C53.4636 48.3938 53.8817 47.385 53.8817 46.3332V3.96589C53.8817 2.91658 53.4656 1.91003 52.7244 1.1667C51.9833 0.423368 50.9776 0.00383894 49.9276 0Z" fill="#244BAB"/>
<path d="M70.9989 56.7461C69.9729 62.6901 61.1402 64.7456 51.4799 69.3209C42.444 64.8665 32.9483 62.811 31.9609 56.7461V23.215H70.9989V56.7461Z" fill="#0278ED"/>
<path d="M65.435 56.4655L51.6077 62.632L37.7852 56.4655V28.8348H65.435V56.4655Z" fill="#56AAFF"/>
<path d="M53.8894 48.7013L46.3125 41.1296L43.4686 43.9716L51.0455 51.5432L53.8894 48.7013Z" fill="white"/>
<path d="M57.255 39.6964L48.2441 48.7009L51.088 51.5429L60.0989 42.5383L57.255 39.6964Z" fill="white"/>
</svg>
