<svg width="74" height="73" viewBox="0 0 74 73" fill="none" xmlns="http://www.w3.org/2000/svg">
<path d="M73.5237 14.7654L38.8224 28.2228C38.2294 28.4539 37.7198 28.8583 37.3602 29.3832C37.0006 29.9081 36.8077 30.5292 36.8066 31.1653V72.9508L71.4973 58.9977C72.0947 58.7568 72.6064 58.3429 72.9665 57.8091C73.3267 57.2754 73.5189 56.6462 73.5184 56.0024L73.5237 14.7654Z" fill="#56AAFF"/>
<path d="M68.2466 39.1592L56.3946 43.7522V57.932L68.2466 53.1703V39.1592Z" fill="#0278ED"/>
<path d="M58.8802 8.87495L24.7753 22.9019C24.0543 23.1993 23.4377 23.7038 23.0038 24.3515C22.5698 24.9992 22.3379 25.761 22.3373 26.5404V41.6589L13.7201 37.9676V22.3482C13.72 21.5624 13.9551 20.7945 14.3952 20.1433C14.8353 19.4921 15.4603 18.9873 16.1897 18.6938L49.7406 5.19947L36.812 0L1.92609 13.9953C1.35776 14.2227 0.870576 14.615 0.527301 15.1216C0.184025 15.6282 0.000375274 16.2258 0 16.8376V58.1854L36.812 72.9506V31.819C36.8134 30.9892 37.0663 30.1794 37.5372 29.496C38.0082 28.8126 38.6752 28.2878 39.4505 27.9906L73.5238 14.7652L58.8802 8.87495Z" fill="#244BAB"/>
</svg>
