<svg width="108" height="105" viewBox="0 0 108 105" fill="none" xmlns="http://www.w3.org/2000/svg">
<g filter="url(#filter0_d)">
<path d="M67.8669 30.4712L32.139 38.3406C30.9577 38.6008 30.2111 39.7688 30.4715 40.9493L37.4546 72.6093C37.715 73.7898 38.8838 74.5359 40.0651 74.2757L75.793 66.4062C76.9744 66.146 77.721 64.9781 77.4606 63.7976L70.4775 32.1376C70.2171 30.9571 69.0483 30.211 67.8669 30.4712Z" fill="#56AAFF"/>
</g>
<path d="M44.9395 35.605L55.408 33.2992L57.0112 40.5679C57.1363 41.1348 57.0309 41.7282 56.7181 42.2174C56.4054 42.7066 55.911 43.0517 55.3437 43.1766L49.1532 44.5401C48.5859 44.6651 47.9922 44.5597 47.5026 44.2472C47.013 43.9347 46.6677 43.4406 46.5427 42.8737L44.9395 35.605Z" fill="#0278ED"/>
<path d="M37 83.1475L80.638 73.408C81.1229 73.2998 81.6107 73.2978 81.9941 73.4026C82.3775 73.5073 82.6251 73.7102 82.6824 73.9665L83.4225 77.2781C83.4798 77.5344 83.3421 77.8233 83.0397 78.0811C82.7374 78.3389 82.2951 78.5445 81.8102 78.6528L40.0006 87.9841C39.5157 88.0924 39.0278 88.0943 38.6444 87.9896C38.261 87.8848 38.0135 87.682 37.9562 87.4256L37 83.1475Z" fill="white"/>
<path d="M80.2161 74.8733L80.2106 74.8746C78.8133 75.1864 77.9336 76.5711 78.2457 77.9673L79.4399 83.3107C79.752 84.7069 81.1376 85.586 82.5349 85.2742L82.5404 85.2729C83.9376 84.9611 84.8173 83.5764 84.5052 82.1801L83.311 76.8368C82.9989 75.4406 81.6133 74.5615 80.2161 74.8733Z" fill="white"/>
<path d="M18.8257 33.4145L18.8202 33.4157C17.4201 33.7146 16.4845 34.8891 16.7303 36.039L26.8774 83.4999C27.1233 84.6498 28.4576 85.3397 29.8576 85.0407L29.8631 85.0396C31.2632 84.7406 32.1988 83.5661 31.953 82.4162L21.8059 34.9554C21.56 33.8055 20.2258 33.1156 18.8257 33.4145Z" fill="white"/>
<path d="M22.0449 35.4464L22.0457 35.4408C22.24 34.0234 21.2476 32.717 19.8292 32.5228L11.2721 31.3515C9.85375 31.1573 8.5464 32.1489 8.3521 33.5664L8.35133 33.572C8.15703 34.9894 9.14937 36.2958 10.5678 36.49L19.1248 37.6613C20.5432 37.8555 21.8506 36.8639 22.0449 35.4464Z" fill="#0278ED"/>
<path d="M33.1681 79.8398C31.4699 79.8398 29.8099 80.3431 28.3979 81.2858C26.986 82.2286 25.8855 83.5687 25.2356 85.1365C24.5858 86.7043 24.4157 88.4294 24.747 90.0938C25.0783 91.7582 25.896 93.287 27.0968 94.4869C28.2976 95.6869 29.8275 96.5041 31.493 96.8351C33.1586 97.1662 34.8849 96.9963 36.4538 96.3469C38.0227 95.6975 39.3637 94.5977 40.3071 93.1867C41.2505 91.7758 41.7541 90.1169 41.7541 88.4199C41.7541 87.2932 41.532 86.1774 41.1005 85.1365C40.669 84.0955 40.0366 83.1496 39.2393 82.3529C38.442 81.5562 37.4955 80.9242 36.4538 80.493C35.4121 80.0618 34.2956 79.8398 33.1681 79.8398ZM33.1681 92.3678C32.3845 92.3678 31.6185 92.1356 30.967 91.7005C30.3154 91.2655 29.8076 90.6472 29.5077 89.9237C29.2079 89.2003 29.1294 88.4042 29.2823 87.6362C29.4352 86.8682 29.8125 86.1628 30.3666 85.6091C30.9207 85.0554 31.6266 84.6783 32.3951 84.5255C33.1637 84.3728 33.9603 84.4512 34.6842 84.7508C35.4082 85.0505 36.0269 85.5579 36.4623 86.209C36.8976 86.8601 37.13 87.6256 37.13 88.4086C37.13 89.4586 36.7126 90.4657 35.9696 91.2082C35.2266 91.9506 34.2188 92.3678 33.1681 92.3678Z" fill="#0278ED"/>
<defs>
<filter id="filter0_d" x="0.419922" y="0.419434" width="107.093" height="103.908" filterUnits="userSpaceOnUse" color-interpolation-filters="sRGB">
<feFlood flood-opacity="0" result="BackgroundImageFix"/>
<feColorMatrix in="SourceAlpha" type="matrix" values="0 0 0 0 0 0 0 0 0 0 0 0 0 0 0 0 0 0 127 0"/>
<feOffset/>
<feGaussianBlur stdDeviation="15"/>
<feColorMatrix type="matrix" values="0 0 0 0 0.164706 0 0 0 0 0.431373 0 0 0 0 0.858824 0 0 0 1 0"/>
<feBlend mode="normal" in2="BackgroundImageFix" result="effect1_dropShadow"/>
<feBlend mode="normal" in="SourceGraphic" in2="effect1_dropShadow" result="shape"/>
</filter>
</defs>
</svg>
