<svg width="77" height="54" viewBox="0 0 77 54" fill="none" xmlns="http://www.w3.org/2000/svg">
<path d="M49.246 0H5.85353C4.98774 0 4.15739 0.343688 3.54518 0.955469C2.93298 1.56725 2.58905 2.397 2.58905 3.26219V41.1125C2.58905 41.9777 2.93298 42.8075 3.54518 43.4193C4.15739 44.031 4.98774 44.3747 5.85353 44.3747H13.8459V42.7118H21.2705V44.3747H52.5105V3.26219C52.5105 2.83379 52.4261 2.40959 52.262 2.01381C52.098 1.61802 51.8575 1.25839 51.5544 0.955469C51.2513 0.652546 50.8914 0.41226 50.4953 0.248319C50.0993 0.084378 49.6747 0 49.246 0Z" fill="#244BAB"/>
<path d="M58.3441 17.9298H52.3731V44.3747H57.4044V42.3547H66.3805V44.3747H72.5815V32.1769C72.5815 28.4017 71.0821 24.7809 68.4127 22.1096C65.7432 19.4383 62.1219 17.935 58.3441 17.9298Z" fill="#56AAFF"/>
<path d="M55.2806 44.3748H22.817V48.7765H55.2806V44.3748Z" fill="#0278ED"/>
<path d="M2.20242 44.3748H11.8833V48.7765H2.20242C1.6183 48.7765 1.0581 48.5446 0.645068 48.1319C0.232035 47.7191 0 47.1593 0 46.5756C0 45.9919 0.232035 45.4321 0.645068 45.0194C1.0581 44.6066 1.6183 44.3748 2.20242 44.3748Z" fill="#0278ED"/>
<path d="M73.8839 48.7766H66.4054V44.3749H73.8839C74.468 44.3749 75.0282 44.6067 75.4412 45.0195C75.8543 45.4322 76.0863 45.992 76.0863 46.5757C76.0863 47.1594 75.8543 47.7192 75.4412 48.132C75.0282 48.5447 74.468 48.7766 73.8839 48.7766Z" fill="#0278ED"/>
<path d="M8.9516 34.3973H2.58905V38.4714H8.9516V34.3973Z" fill="#56AAFF"/>
<path d="M17.0613 39.1611C15.5928 39.1611 14.1573 39.5962 12.9364 40.4115C11.7154 41.2267 10.7638 42.3855 10.2018 43.7412C9.63987 45.0969 9.49284 46.5887 9.77932 48.028C10.0658 49.4672 10.7729 50.7892 11.8113 51.8268C12.8496 52.8645 14.1726 53.5711 15.6128 53.8574C17.053 54.1436 18.5459 53.9967 19.9025 53.4352C21.2592 52.8736 22.4187 51.9226 23.2346 50.7025C24.0504 49.4824 24.4858 48.0479 24.4858 46.5805C24.4858 44.6128 23.7036 42.7256 22.3112 41.3342C20.9189 39.9428 19.0304 39.1611 17.0613 39.1611ZM17.0613 49.9943C16.3837 49.9943 15.7213 49.7935 15.1579 49.4173C14.5945 49.0412 14.1554 48.5065 13.8961 47.8809C13.6368 47.2553 13.5689 46.5669 13.7011 45.9028C13.8333 45.2387 14.1596 44.6287 14.6387 44.1499C15.1178 43.6711 15.7283 43.345 16.3929 43.2129C17.0575 43.0808 17.7463 43.1486 18.3723 43.4077C18.9983 43.6669 19.5334 44.1057 19.9099 44.6687C20.2863 45.2317 20.4872 45.8936 20.4872 46.5707C20.4872 47.4787 20.1263 48.3495 19.4838 48.9916C18.8413 49.6336 17.9699 49.9943 17.0613 49.9943Z" fill="#0278ED"/>
<path d="M56.2596 22.1655H57.1308C58.6284 22.1655 60.1113 22.4603 61.4948 23.033C62.8784 23.6057 64.1355 24.4451 65.1944 25.5032C66.2534 26.5614 67.0933 27.8177 67.6664 29.2003C68.2395 30.5829 68.5345 32.0647 68.5345 33.5612H56.2596V22.1655Z" fill="white"/>
<path d="M72.6017 37.136H68.4269V41.1759H72.6017V37.136Z" fill="#0278ED"/>
<path d="M61.5992 39.1611C60.1308 39.1611 58.6953 39.5962 57.4743 40.4115C56.2534 41.2267 55.3017 42.3855 54.7398 43.7412C54.1778 45.0969 54.0308 46.5887 54.3173 48.028C54.6038 49.4672 55.3109 50.7892 56.3492 51.8268C57.3876 52.8645 58.7105 53.5711 60.1507 53.8574C61.591 54.1436 63.0838 53.9967 64.4405 53.4352C65.7971 52.8736 66.9567 51.9226 67.7725 50.7025C68.5884 49.4824 69.0238 48.0479 69.0238 46.5805C69.0238 44.6128 68.2416 42.7256 66.8492 41.3342C65.4568 39.9428 63.5683 39.1611 61.5992 39.1611ZM61.5992 49.9943C60.9216 49.9943 60.2592 49.7935 59.6958 49.4173C59.1324 49.0412 58.6933 48.5065 58.434 47.8809C58.1747 47.2553 58.1069 46.5669 58.2391 45.9028C58.3713 45.2387 58.6975 44.6287 59.1767 44.1499C59.6558 43.6711 60.2663 43.345 60.9308 43.2129C61.5954 43.0808 62.2843 43.1486 62.9103 43.4077C63.5363 43.6669 64.0714 44.1057 64.4478 44.6687C64.8243 45.2317 65.0252 45.8936 65.0252 46.5707C65.0252 47.4787 64.6642 48.3495 64.0217 48.9916C63.3793 49.6336 62.5078 49.9943 61.5992 49.9943Z" fill="#0278ED"/>
</svg>
