<svg class="big-counter__svg" width="363" height="360" viewBox="0 0 363 360" fill="none" xmlns="http://www.w3.org/2000/svg">
<g clip-path="url(#clip0)">
<path d="M303.567 124.57L301.401 120.144L290.254 125.866L288.705 122.699L299.707 117.047L297.55 112.639L300.161 111.361L306.16 123.257L303.567 124.57Z" fill="white"/>
<path d="M307.62 138.689C307.452 139.703 307.003 140.65 306.323 141.42C305.578 142.252 304.631 142.877 303.573 143.234C302.528 143.635 301.396 143.758 300.289 143.592C299.297 143.412 298.373 142.961 297.621 142.288C296.831 141.598 296.237 140.712 295.896 139.72C295.64 139.11 295.519 138.451 295.542 137.789C295.565 137.127 295.73 136.478 296.028 135.887L290.831 137.761L289.667 134.516L304.836 129.034L305.947 132.125L304.662 132.599C305.311 132.855 305.892 133.257 306.362 133.774C306.831 134.29 307.176 134.907 307.369 135.578C307.725 136.575 307.812 137.648 307.62 138.689ZM299.855 139.968C300.669 140.299 301.581 140.293 302.392 139.954C303.231 139.698 303.935 139.121 304.351 138.348C304.693 137.613 304.731 136.772 304.458 136.008C304.185 135.245 303.621 134.62 302.89 134.268C302.089 133.942 301.192 133.941 300.389 134.265C299.55 134.521 298.846 135.098 298.43 135.871C298.092 136.608 298.058 137.448 298.335 138.21C298.611 138.972 299.177 139.594 299.909 139.942L299.855 139.968Z" fill="white"/>
<path d="M312.984 157.541L299.534 155.045C298.347 154.931 297.218 154.477 296.283 153.737C295.539 153.029 295.033 152.108 294.837 151.1C294.703 150.497 294.663 149.877 294.718 149.262C294.757 148.699 294.915 148.151 295.181 147.653L297.774 148.391C297.603 148.705 297.49 149.047 297.442 149.401C297.383 149.746 297.389 150.098 297.46 150.441C297.507 150.85 297.694 151.231 297.988 151.52C298.367 151.799 298.808 151.981 299.274 152.051L309.828 144.433L310.604 147.889L303.479 152.892L312.053 154.406L312.984 157.541Z" fill="white"/>
<path d="M312.983 171.859C312.614 172.727 312 173.47 311.216 173.995C310.371 174.553 309.395 174.885 308.385 174.957C307.34 175.077 306.283 174.89 305.343 174.419C304.404 173.948 303.621 173.213 303.093 172.305C302.507 171.307 302.158 170.189 302.073 169.035C301.944 168.133 302.016 167.213 302.284 166.342C302.552 165.471 303.009 164.669 303.623 163.995C305.149 162.588 307.134 161.783 309.209 161.73C311.209 161.445 313.248 161.807 315.026 162.764C316.629 163.8 317.775 165.409 318.231 167.261L319.859 172.776L316.957 173.505L315.512 168.637C315.261 167.547 314.711 166.55 313.924 165.756C313.172 165.134 312.219 164.807 311.243 164.838C311.845 165.3 312.339 165.888 312.689 166.561C313.062 167.278 313.287 168.063 313.35 168.869C313.479 169.881 313.353 170.909 312.983 171.859ZM305.821 170.903C306.459 171.388 307.261 171.604 308.056 171.504C308.45 171.496 308.838 171.404 309.193 171.233C309.548 171.062 309.862 170.816 310.114 170.513C310.366 170.21 310.549 169.857 310.652 169.476C310.755 169.096 310.775 168.698 310.711 168.31C310.689 167.915 310.588 167.528 310.414 167.173C310.24 166.817 309.997 166.5 309.698 166.241C309.394 165.991 309.042 165.807 308.663 165.701C308.285 165.594 307.888 165.567 307.499 165.622C307.096 165.643 306.702 165.745 306.34 165.922C305.978 166.099 305.656 166.348 305.392 166.653C305.136 166.957 304.945 167.311 304.833 167.693C304.72 168.074 304.687 168.475 304.736 168.869C304.767 169.251 304.876 169.622 305.056 169.96C305.237 170.297 305.485 170.594 305.786 170.831L305.821 170.903Z" fill="white"/>
<path d="M314.807 179.553L314.652 182.974L310.073 182.739L309.849 187.889L314.427 188.125L314.28 191.564L302.426 191.053L302.573 187.614L306.999 187.812L307.224 182.662L302.807 182.437L302.963 179.015L314.807 179.553Z" fill="white"/>
<path d="M310.889 206.159C310.3 206.57 309.63 206.851 308.923 206.981C308.217 207.111 307.491 207.088 306.795 206.913L300.119 205.719L300.666 202.552L302.125 202.797C301.623 202.311 301.264 201.697 301.087 201.021C300.909 200.345 300.921 199.633 301.119 198.963C301.24 198.159 301.534 197.391 301.982 196.712C302.37 196.127 302.923 195.67 303.571 195.399C304.175 195.148 304.839 195.078 305.482 195.2C305.982 195.265 306.459 195.452 306.871 195.745C307.283 196.037 307.616 196.426 307.842 196.877C308.35 198.133 308.441 199.519 308.103 200.831L307.631 203.515C307.944 203.589 308.27 203.593 308.585 203.527C308.899 203.462 309.196 203.328 309.454 203.136C309.997 202.635 310.338 201.952 310.412 201.218C310.523 200.593 310.535 199.955 310.447 199.327C310.372 198.747 310.195 198.184 309.924 197.665L312.503 196.871C312.86 197.651 313.08 198.486 313.153 199.341C313.244 200.282 313.205 201.231 313.039 202.162C312.856 203.719 312.087 205.148 310.889 206.159ZM303.343 201.867C303.534 202.359 303.892 202.768 304.355 203.022L305.554 203.238L305.916 200.831C306.161 199.447 305.827 198.674 304.915 198.511C304.717 198.47 304.512 198.478 304.318 198.534C304.123 198.59 303.946 198.693 303.8 198.833C303.456 199.198 303.239 199.664 303.179 200.163C303.068 200.735 303.125 201.327 303.343 201.867Z" fill="white"/>
<path d="M307.366 223.494L296.048 220.111L296.863 217.215L300.108 218.191L300.846 215.778L298.239 212.594L299.292 209.09L302.208 212.815C302.684 212.174 303.34 211.69 304.093 211.424C304.834 211.208 305.623 211.227 306.351 211.479C306.956 211.626 307.515 211.92 307.979 212.335C308.443 212.75 308.797 213.273 309.01 213.857C309.437 215.266 309.392 216.776 308.883 218.157L307.366 223.494ZM306.44 215.673C306.352 215.445 306.208 215.242 306.022 215.084C305.835 214.926 305.612 214.817 305.372 214.768C305.148 214.679 304.905 214.645 304.664 214.669C304.424 214.694 304.193 214.776 303.991 214.909C303.552 215.287 303.245 215.797 303.118 216.362L302.361 218.829L305.588 219.814L306.317 217.383C306.531 216.839 306.573 216.242 306.44 215.673Z" fill="white"/>
<path d="M292.859 238.219L293.689 236.631L289.7 234.546L291.305 231.531L301.797 237.057L300.193 240.073L296.106 237.924L295.24 239.574L297.814 244.56L296.118 247.798L293.028 241.482L285.507 242.531L287.385 238.935L292.859 238.219Z" fill="white"/>
<path d="M283.281 246.92C284.234 246.412 285.31 246.179 286.388 246.247C287.488 246.349 288.542 246.735 289.447 247.368C290.351 248.001 291.075 248.859 291.546 249.857C291.986 250.844 292.141 251.934 291.994 253.005C291.817 254.155 291.379 255.249 290.711 256.202C290.044 257.155 289.166 257.942 288.145 258.501C287.187 259.004 286.108 259.231 285.029 259.156C283.929 259.055 282.875 258.669 281.971 258.036C281.066 257.403 280.343 256.545 279.871 255.547C279.429 254.564 279.268 253.477 279.406 252.407C279.582 251.258 280.021 250.164 280.688 249.21C281.356 248.257 282.234 247.471 283.255 246.911L283.281 246.92ZM282.51 253.141C282.748 253.98 283.27 254.711 283.985 255.21C284.701 255.709 285.568 255.946 286.438 255.88C286.837 255.821 287.219 255.679 287.559 255.462C287.899 255.246 288.19 254.96 288.412 254.624C288.656 254.297 288.829 253.923 288.919 253.526C289.009 253.128 289.014 252.716 288.934 252.317C288.703 251.473 288.183 250.738 287.465 250.238C286.748 249.737 285.878 249.504 285.006 249.578C284.604 249.641 284.22 249.788 283.878 250.009C283.536 250.23 283.245 250.52 283.023 250.861C282.782 251.183 282.611 251.553 282.523 251.946C282.434 252.339 282.43 252.746 282.51 253.141Z" fill="white"/>
<path d="M266.99 265.932L272.155 270.787L270.259 264.132L271.255 263.065L277.981 264.635L272.79 259.771L274.916 257.504L283.557 265.631L281.132 268.2L273.503 266.291L275.739 273.917L273.541 276.264L264.855 268.181L266.99 265.932Z" fill="white"/>
<path d="M259.448 287.732L252.09 278.442L254.789 276.296L260.472 283.35L264.353 280.291L258.67 273.237L261.458 271.137L268.816 280.427L259.448 287.732Z" fill="white"/>
<path d="M246.308 294.808C245.602 294.636 244.941 294.312 244.372 293.858C243.803 293.405 243.34 292.833 243.015 292.182L239.535 286.392L242.292 284.731L243.043 285.991C243.072 285.285 243.296 284.601 243.691 284.014C244.085 283.428 244.634 282.962 245.277 282.668C245.966 282.231 246.743 281.95 247.552 281.844C248.227 281.752 248.914 281.858 249.53 282.148C250.118 282.439 250.607 282.899 250.935 283.468C251.211 283.889 251.381 284.371 251.428 284.873C251.475 285.375 251.399 285.88 251.205 286.346C250.594 287.554 249.612 288.535 248.402 289.145L246.059 290.559C246.206 290.844 246.413 291.093 246.667 291.289C246.921 291.485 247.215 291.622 247.528 291.691C248.228 291.761 248.931 291.583 249.513 291.188C250.053 290.861 250.537 290.451 250.949 289.973C251.343 289.533 251.654 289.026 251.868 288.475L254.168 289.892C253.812 290.674 253.323 291.388 252.724 292.003C252.076 292.688 251.338 293.282 250.53 293.768C249.295 294.615 247.795 294.985 246.308 294.808ZM244.618 286.291C244.367 286.76 244.292 287.303 244.407 287.821L245.025 288.857L247.044 287.646C248.251 286.922 248.622 286.16 248.157 285.362C248.059 285.184 247.918 285.033 247.747 284.922C247.576 284.811 247.38 284.744 247.177 284.726C246.676 284.706 246.182 284.846 245.766 285.127C245.282 285.401 244.885 285.804 244.618 286.291Z" fill="white"/>
<path d="M240.525 299.222L237.402 300.594L235.53 296.358L230.815 298.442L232.687 302.678L229.52 304.094L224.748 293.249L227.888 291.868L229.672 295.924L234.396 293.858L232.541 289.747L235.663 288.376L240.525 299.222Z" fill="white"/>
<path d="M223.639 306.214L220.35 307.154L218.42 300.382L214.832 308.828L211.795 309.69L208.471 298.337L211.76 297.396L213.69 304.168L217.26 295.731L220.315 294.86L223.639 306.214Z" fill="white"/>
<path d="M195.261 312.338L193.563 300.613L196.605 300.173L197.087 303.528L199.591 303.173L201.335 299.487L204.961 298.961L202.835 303.191C203.644 303.364 204.379 303.783 204.94 304.391C205.488 304.956 205.842 305.681 205.952 306.46C206.071 307.069 206.038 307.697 205.858 308.291C205.678 308.884 205.355 309.425 204.919 309.865C203.82 310.851 202.43 311.453 200.96 311.579L195.261 312.338ZM201.994 308.13C202.162 307.954 202.284 307.74 202.349 307.506C202.413 307.272 202.419 307.025 202.364 306.789C202.351 306.544 202.278 306.306 202.152 306.095C202.026 305.885 201.85 305.709 201.64 305.582C201.11 305.351 200.52 305.296 199.956 305.425L197.408 305.78L197.88 309.117L200.384 308.761C200.965 308.719 201.52 308.502 201.976 308.138L201.994 308.13Z" fill="white"/>
<path d="M176.817 306.934L173.536 311.127L170.462 311.003L173.654 306.809L170.825 302.395L173.898 302.52L176.817 306.934ZM181.799 307.128L178.518 311.321L175.444 311.197L178.636 307.003L175.807 302.589L178.88 302.713L181.799 307.128Z" fill="white"/>
<path d="M151.091 313.323L159.63 302.454C160.331 301.497 161.255 300.723 162.321 300.201C163.261 299.761 164.313 299.619 165.336 299.796C166.191 299.95 167.007 300.271 167.739 300.739L166.435 303.273C165.975 303.025 165.481 302.846 164.969 302.741C164.554 302.662 164.125 302.702 163.731 302.856C163.296 303.046 162.91 303.334 162.604 303.698L162.423 303.786L166.529 315.961L162.761 315.329L160.105 306.481L154.545 313.952L151.091 313.323Z" fill="white"/>
<path d="M132.649 307.695L137.404 293.013L140.773 294.108L136.913 306.01L143.544 308.162L147.405 296.259L150.774 297.354L146.02 312.036L132.649 307.695Z" fill="white"/>
<path d="M129.656 290.359C130.473 291.499 130.96 292.843 131.065 294.242C131.144 295.68 130.846 297.115 130.201 298.405C129.556 299.694 128.587 300.793 127.388 301.594C126.219 302.326 124.875 302.729 123.497 302.762C122.141 302.773 120.798 302.496 119.558 301.95C118.317 301.404 117.207 300.6 116.3 299.593C115.571 298.711 115.061 297.669 114.812 296.552L117.805 295.69C117.968 296.414 118.292 297.092 118.754 297.673C119.217 298.254 119.804 298.723 120.473 299.045C121.249 299.455 122.117 299.66 122.995 299.64C123.84 299.603 124.657 299.327 125.351 298.844C126.061 298.32 126.634 297.633 127.023 296.841C127.412 296.049 127.606 295.175 127.587 294.293C127.55 293.449 127.274 292.633 126.792 291.939C126.279 291.21 125.586 290.627 124.781 290.247C124.121 289.899 123.391 289.707 122.645 289.686C121.9 289.664 121.159 289.813 120.48 290.121L119.367 287.209C120.42 286.735 121.572 286.524 122.725 286.592C123.97 286.677 125.184 287.016 126.292 287.589C127.627 288.218 128.783 289.17 129.656 290.359Z" fill="white"/>
<path d="M108.982 284.73L111.005 286.127L114.545 281.004L117.476 283.027L108.688 295.713L105.766 293.708L109.325 288.577L107.231 287.126L100.341 289.962L97.2401 287.822L105.623 284.568L105.94 275.001L109.299 277.305L108.982 284.73Z" fill="white"/>
<path d="M99.8387 271.653L94.7194 272.82L94.0638 278.047L91.7605 275.985L92.336 270.686L97.5265 269.573L99.8387 271.653ZM103.547 274.99L98.4276 276.157L97.7721 281.384L95.4688 279.322L95.9723 274.058L101.163 272.945L103.547 274.99Z" fill="white"/>
<path d="M58.6392 233.516L60.8052 237.942L71.9696 232.256L73.5192 235.423L62.3548 241.109L64.512 245.518L61.9014 246.795L55.8218 234.872L58.6392 233.516Z" fill="white"/>
<path d="M54.8292 219.3C55.0103 218.292 55.4721 217.355 56.1616 216.597C56.9351 215.792 57.8885 215.182 58.9434 214.817C59.9984 214.452 61.1249 214.342 62.2302 214.497C63.239 214.669 64.179 215.121 64.9436 215.801C65.7283 216.505 66.3139 217.403 66.6416 218.404C66.8906 219.02 67.0021 219.683 66.9684 220.347C66.9347 221.01 66.7565 221.659 66.4464 222.247L71.6789 220.444L72.7976 223.688L57.514 228.937L56.4389 225.828L57.7336 225.373C57.0848 225.11 56.5054 224.702 56.0405 224.179C55.5756 223.656 55.2378 223.033 55.0533 222.358C54.7155 221.375 54.6383 220.322 54.8292 219.3ZM62.6196 218.12C61.8009 217.821 60.904 217.814 60.0801 218.099C59.2563 218.384 58.556 218.945 58.0974 219.686C57.7474 220.419 57.7007 221.261 57.9675 222.028C58.2342 222.795 58.7929 223.426 59.5223 223.784C60.341 224.083 61.2379 224.09 62.0618 223.805C62.8856 223.52 63.5859 222.959 64.0446 222.218C64.3946 221.484 64.4413 220.643 64.1745 219.876C63.9077 219.109 63.349 218.478 62.6196 218.12Z" fill="white"/>
<path d="M49.6905 200.316L63.1119 202.982C64.3034 203.118 65.4295 203.598 66.3533 204.362C67.0629 205.103 67.5244 206.046 67.6741 207.061C67.8026 207.667 67.8364 208.29 67.7743 208.907C67.7309 209.474 67.5672 210.026 67.294 210.525L64.6924 209.769C64.8715 209.46 64.993 209.121 65.0507 208.768C65.1083 208.423 65.1023 208.071 65.033 207.729C64.9841 207.319 64.7979 206.939 64.5047 206.649C64.1319 206.37 63.6968 206.184 63.2367 206.11L52.5767 213.556L51.8544 210.074L59.0502 205.17L50.4868 203.539L49.6905 200.316Z" fill="white"/>
<path d="M49.8869 186.08C50.2642 185.212 50.8877 184.473 51.6803 183.954C52.5369 183.41 53.5171 183.091 54.5298 183.028C55.5783 182.921 56.635 183.123 57.5701 183.608C58.5053 184.093 59.2782 184.841 59.794 185.76C60.3694 186.766 60.706 187.891 60.7779 189.047C60.8967 189.951 60.8146 190.869 60.5374 191.737C60.2601 192.605 59.7946 193.402 59.1741 194.069C57.6285 195.458 55.6305 196.238 53.5528 196.263C51.5042 196.543 49.4204 196.145 47.6202 195.129C46.0255 194.074 44.8951 192.449 44.4603 190.587L42.9048 185.037L45.8239 184.344L47.1881 189.23C47.4259 190.321 47.9633 191.325 48.7401 192.128C49.4919 192.75 50.4452 193.077 51.421 193.046C50.8195 192.575 50.329 191.978 49.9844 191.296C49.6161 190.575 49.3974 189.787 49.3415 188.979C49.2855 187.983 49.4726 186.988 49.8869 186.08ZM57.1194 187.18C56.4879 186.688 55.6889 186.463 54.8931 186.552C54.5005 186.57 54.1156 186.668 53.7626 186.841C53.4095 187.014 53.0957 187.257 52.8407 187.556C52.5938 187.859 52.4109 188.208 52.3028 188.583C52.1947 188.958 52.1639 189.35 52.212 189.738C52.2341 190.133 52.3351 190.519 52.509 190.875C52.6829 191.23 52.9261 191.547 53.2245 191.807C53.5252 192.06 53.875 192.248 54.252 192.359C54.629 192.47 55.0249 192.502 55.4148 192.452C55.8173 192.431 56.2114 192.329 56.5734 192.152C56.9354 191.975 57.2579 191.726 57.5213 191.421C57.7821 191.121 57.9775 190.77 58.0951 190.389C58.2126 190.009 58.2497 189.609 58.204 189.214C58.175 188.813 58.059 188.424 57.8639 188.072C57.6689 187.721 57.3995 187.416 57.0746 187.18L57.1194 187.18Z" fill="white"/>
<path d="M48.1814 178.262L48.3818 174.841L52.9775 175.112L53.327 170.035L48.7313 169.764L48.9229 166.324L60.7663 166.997L60.5747 170.436L56.149 170.193L55.8528 175.333L60.2336 175.576L60.0332 178.997L48.1814 178.262Z" fill="white"/>
<path d="M52.4397 151.713C53.0363 151.308 53.7129 151.036 54.4238 150.915C55.1347 150.794 55.8632 150.827 56.56 151.013L63.2 152.224L62.5354 155.426L61.0858 155.154C61.5832 155.648 61.935 156.27 62.1029 156.951C62.2708 157.632 62.2483 158.346 62.0378 159.015C61.9067 159.817 61.6034 160.582 61.1486 161.256C60.7555 161.836 60.1995 162.287 59.5507 162.551C58.9426 162.8 58.2747 162.863 57.631 162.732C57.1315 162.659 56.6576 162.465 56.2508 162.166C55.844 161.868 55.5168 161.474 55.2977 161.019C54.8047 159.759 54.7289 158.373 55.0815 157.066L55.8138 154.322C55.5008 154.243 55.1742 154.234 54.8575 154.297C54.5408 154.359 54.2418 154.491 53.9821 154.683C53.4384 155.177 53.0945 155.853 53.0153 156.583C52.8961 157.203 52.8754 157.838 52.9539 158.464C53.0215 159.047 53.1926 159.613 53.4591 160.135L50.8708 160.911C50.5243 160.123 50.3164 159.282 50.2563 158.424C50.1759 157.484 50.2234 156.538 50.3976 155.611C50.5761 154.105 51.303 152.718 52.4397 151.713ZM59.9212 156.103C59.7382 155.602 59.3828 155.183 58.9187 154.921L57.7376 154.696L57.305 157.004C57.0477 158.394 57.3695 159.173 58.2703 159.342C58.4681 159.386 58.6739 159.382 58.8696 159.329C59.0654 159.276 59.2452 159.176 59.3934 159.037C59.7467 158.679 59.9741 158.215 60.0414 157.717C60.1502 157.185 60.1117 156.633 59.93 156.121L59.9212 156.103Z" fill="white"/>
<path d="M56.2123 134.434L67.5191 138.022L66.5793 140.936L63.3526 139.905L62.5875 142.309L65.1587 145.511L64.0524 148.996L61.1815 145.227C60.7006 145.863 60.041 146.341 59.2871 146.6C58.5421 146.812 57.7498 146.787 57.0201 146.528C56.4196 146.368 55.8674 146.063 55.4118 145.641C54.9562 145.219 54.6109 144.691 54.4062 144.104C53.987 142.7 54.0348 141.198 54.5425 139.823L56.2123 134.434ZM57.0572 142.317C57.1424 142.544 57.283 142.747 57.4662 142.906C57.6495 143.066 57.8696 143.177 58.1068 143.23C58.3311 143.324 58.5748 143.361 58.817 143.34C59.0592 143.319 59.2925 143.239 59.4971 143.108C59.9354 142.734 60.2441 142.232 60.3792 141.672L61.1627 139.215L57.9449 138.202L57.1798 140.606C56.9565 141.158 56.9104 141.765 57.048 142.343L57.0572 142.317Z" fill="white"/>
<path d="M70.9057 119.906L70.0493 121.485L74.0011 123.633L72.361 126.665L61.9418 121.014L63.5818 117.982L67.6228 120.175L68.4977 118.542L66.0323 113.504L67.7368 110.284L70.8273 116.6L78.3737 115.65L76.4332 119.209L70.9057 119.906Z" fill="white"/>
<path d="M80.5806 111.359C79.6143 111.853 78.5288 112.068 77.447 111.978C76.3474 111.864 75.2965 111.466 74.3983 110.822C73.5001 110.178 72.7856 109.311 72.3255 108.306C71.9079 107.319 71.7717 106.236 71.9318 105.176C72.1269 104.013 72.591 102.911 73.2872 101.958C73.9834 101.006 74.8924 100.229 75.9418 99.6899C76.9041 99.2024 77.9825 98.9912 79.0574 99.0797C80.1491 99.2005 81.1906 99.6023 82.0804 100.246C82.9702 100.889 83.6778 101.752 84.1341 102.751C84.557 103.743 84.6963 104.833 84.5366 105.899C84.3416 107.062 83.8774 108.164 83.1812 109.116C82.4851 110.069 81.576 110.846 80.5266 111.385L80.5806 111.359ZM81.4329 105.165C81.2456 104.308 80.7271 103.56 79.9902 103.084C79.3015 102.536 78.4239 102.284 77.5494 102.382C77.1621 102.439 76.7904 102.573 76.4571 102.779C76.1239 102.984 75.8362 103.255 75.6118 103.576C75.3644 103.899 75.1876 104.271 75.0931 104.667C74.9985 105.063 74.9882 105.474 75.0628 105.874C75.1545 106.299 75.3291 106.701 75.5767 107.059C75.8242 107.416 76.1398 107.721 76.5054 107.956C76.8459 108.228 77.2368 108.43 77.6557 108.55C78.0746 108.67 78.5131 108.707 78.9462 108.657C79.3368 108.603 79.7124 108.47 80.0501 108.267C80.3879 108.063 80.6806 107.793 80.9106 107.473C81.157 107.147 81.331 106.773 81.421 106.375C81.5111 105.977 81.5151 105.565 81.4329 105.165Z" fill="white"/>
<path d="M97.1669 92.5376L92.0564 87.6118L93.8798 94.3022L92.8757 95.3512L86.1944 93.7364L91.3137 98.6802L89.1517 100.92L80.6555 92.6777L83.161 90.0913L90.735 92.1167L88.5442 84.4017L90.7605 82.0906L99.2568 90.333L97.1669 92.5376Z" fill="white"/>
<path d="M104.869 70.793L112.1 80.1896L109.419 82.3714L103.907 75.2112L99.9375 78.0901L105.45 85.2504L102.742 87.3334L95.5462 78.0087L104.869 70.793Z" fill="white"/>
<path d="M118.213 63.9513C118.92 64.1331 119.58 64.4671 120.146 64.9298C120.711 65.3926 121.169 65.973 121.487 66.6308L124.94 72.5463L122.165 74.1718L121.423 72.8843C121.394 73.5938 121.168 74.2813 120.77 74.8698C120.372 75.4583 119.819 75.9246 119.171 76.2166C118.478 76.6485 117.698 76.9234 116.887 77.0219C116.213 77.1038 115.529 76.9892 114.918 76.6919C114.336 76.395 113.853 75.9328 113.532 75.3632C113.262 74.9383 113.101 74.454 113.062 73.9523C113.022 73.4507 113.106 72.947 113.306 72.4851C113.937 71.2866 114.935 70.3214 116.154 69.7313L118.514 68.3532C118.372 68.0643 118.167 67.8105 117.915 67.6101C117.662 67.4097 117.368 67.2676 117.055 67.1941C116.353 67.1097 115.644 67.2751 115.052 67.6613C114.503 67.9836 114.01 68.3908 113.589 68.8676C113.194 69.3013 112.88 69.8025 112.662 70.3473L110.389 68.8947C110.759 68.1203 111.259 67.4152 111.868 66.8104C112.524 66.1368 113.268 65.5552 114.08 65.0816C115.278 64.2237 116.744 63.8228 118.213 63.9513ZM119.805 72.4945C120.061 72.0312 120.145 71.4924 120.042 70.9733L119.514 69.8937L117.486 71.0864C116.273 71.799 115.899 72.5545 116.364 73.3529C116.463 73.531 116.604 73.6822 116.775 73.793C116.946 73.9038 117.141 73.9709 117.344 73.9882C117.846 74.0176 118.345 73.8834 118.764 73.6058C119.2 73.3253 119.556 72.9361 119.796 72.4765L119.805 72.4945Z" fill="white"/>
<path d="M124.086 59.583L127.226 58.2473L129.044 62.5095L133.794 60.4973L131.976 56.235L135.134 54.8905L139.708 65.833L136.55 67.1775L134.82 63.0953L130.07 65.1075L131.854 69.1633L128.624 70.5431L124.086 59.583Z" fill="white"/>
<path d="M141.014 52.8608L144.285 51.9293L146.125 58.7453L149.864 50.4257L152.901 49.6088L155.982 61.0585L152.694 61.954L150.871 55.174L147.15 63.4847L144.087 64.2925L141.014 52.8608Z" fill="white"/>
<path d="M169.443 47.1124L171.006 58.9258L167.964 59.3216L167.518 55.9489L165.006 56.2864L163.226 59.9451L159.574 60.3717L161.762 56.1787C160.959 55.9995 160.23 55.5773 159.675 54.9696C159.127 54.4042 158.773 53.6798 158.663 52.9004C158.566 52.2829 158.622 51.6509 158.828 51.0604C159.033 50.4698 159.381 49.9388 159.84 49.5143C160.952 48.5414 162.351 47.9583 163.825 47.8541L169.443 47.1124ZM162.666 51.2313C162.494 51.403 162.368 51.6146 162.299 51.8471C162.23 52.0796 162.219 52.3256 162.269 52.5631C162.28 52.8075 162.35 53.0457 162.473 53.2573C162.596 53.4689 162.768 53.6477 162.975 53.7786C163.5 54.0152 164.086 54.0797 164.65 53.9628L167.207 53.6257L166.771 50.271L164.258 50.6084C163.677 50.6506 163.122 50.8678 162.666 51.2313Z" fill="white"/>
<path d="M182.902 52.5021L186.228 48.3545L189.265 48.5411L186.011 52.6983L188.795 57.1567L185.722 56.9877L182.902 52.5021ZM187.875 52.7676L191.201 48.6199L194.274 48.7889L191.019 52.9461L193.803 57.4046L190.73 57.2356L187.875 52.7676Z" fill="white"/>
<path d="M213.679 46.7196L205.05 57.6326C204.336 58.5854 203.4 59.3496 202.324 59.8589C201.379 60.2852 200.327 60.4109 199.309 60.219C198.443 60.0328 197.624 59.6756 196.898 59.1685L198.273 56.7339C198.729 56.9892 199.219 57.1774 199.729 57.2926C200.138 57.3698 200.56 57.333 200.949 57.1863C201.386 57.0019 201.774 56.7202 202.085 56.3625L202.266 56.2744L198.313 44.0468L202.062 44.7322L204.601 53.6148L210.242 46.2161L213.679 46.7196Z" fill="white"/>
<path d="M232.038 52.5892L227.061 67.1794L223.727 66.0675L227.748 54.22L221.144 51.9877L217.123 63.8351L213.754 62.696L218.723 48.0878L232.038 52.5892Z" fill="white"/>
<path d="M234.833 70.0668C234.062 68.9342 233.609 67.6153 233.522 66.2478C233.461 64.8081 233.776 63.3771 234.436 62.0958C235.097 60.8145 236.08 59.7272 237.288 58.941C238.465 58.218 239.816 57.8268 241.197 57.8087C242.564 57.818 243.912 58.1201 245.152 58.6946C246.392 59.2691 247.493 60.1027 248.383 61.1391C249.112 62.0214 249.622 63.0633 249.871 64.18L246.861 65.0061C246.708 64.2822 246.393 63.6023 245.94 63.0169C245.488 62.4314 244.909 61.9555 244.247 61.6243C243.469 61.199 242.594 60.9818 241.707 60.9938C240.867 61.0179 240.051 61.2781 239.352 61.7447C238.645 62.261 238.071 62.9381 237.677 63.7202C237.284 64.5022 237.082 65.3666 237.09 66.2417C237.113 67.0813 237.373 67.8971 237.84 68.5955C238.34 69.3335 239.023 69.9289 239.823 70.3234C240.48 70.668 241.207 70.8591 241.949 70.8823C242.691 70.9056 243.429 70.7604 244.106 70.4577L245.183 73.3876C244.127 73.8465 242.975 74.0429 241.826 73.96C240.537 73.8758 239.281 73.5171 238.142 72.9078C236.82 72.2508 235.682 71.2743 234.833 70.0668Z" fill="white"/>
<path d="M255.362 75.8556L253.259 74.4314L249.647 79.4995L246.743 77.4414L255.808 64.8654L258.694 66.9324L255.073 72.0273L257.238 73.4431L264.155 70.7053L267.228 72.8813L258.793 76.0276L258.405 85.5399L255.037 83.2181L255.362 75.8556Z" fill="white"/>
<path d="M260.779 85.6495L265.906 84.5454L266.634 79.3277L268.91 81.4254L268.2 86.7238L263.001 87.7736L260.779 85.6495ZM264.424 89.0399L269.552 87.9358L270.279 82.7181L272.555 84.8158L271.908 90.1058L266.709 91.1556L264.424 89.0399Z" fill="white"/>
</g>
<defs>
<clipPath id="clip0">
<rect width="266.448" height="273.706" fill="white" transform="translate(245.85) rotate(63.9259)"/>
</clipPath>
</defs>
</svg>
