<svg class="big-counter__svg" width="266" height="266" viewBox="0 0 266 266" fill="none" xmlns="http://www.w3.org/2000/svg">
<g clip-path="url(#clip0)">
<path d="M170.1 8.3001L165.5 7.2001L162.6 18.9001L159.3 18.1001L162.2 6.4001L157.6 5.3001L158.3 2.6001L170.8 5.7001L170.1 8.3001Z" fill="white"/>
<path d="M183.9 11.1C184.6 11.9 185.1 12.7 185.3 13.6C185.5 14.5 185.4 15.5 185 16.6C184.6 17.6 184 18.4 183.2 19C182.4 19.6 181.5 19.9 180.4 19.9C179.3 20 178.2 19.7 177 19.3L174.2 18.2L172.7 22L169.5 20.8L174.8 7L180.8 9.3C182.1 9.7 183.1 10.3 183.9 11.1ZM180.3 16.8C181 16.6 181.4 16.1 181.7 15.3C182 14.5 182 13.8 181.6 13.2C181.3 12.6 180.6 12.1 179.6 11.7L177 10.7L175.1 15.5L177.7 16.5C178.8 16.9 179.6 17 180.3 16.8Z" fill="white"/>
<path d="M202.7 19.9L191.5 27.2C190.4 27.9 189.4 28.3 188.3 28.4C187.3 28.5 186.3 28.3 185.4 27.8C184.7 27.4 184.1 26.9 183.5 26.2L185.5 24.3C185.9 24.7 186.3 25.1 186.7 25.3C187.1 25.5 187.5 25.6 187.9 25.6C188.3 25.6 188.7 25.4 189.2 25.2L189.4 25.1L189.5 12.7L192.7 14.5L192.3 23.4L199.7 18.3L202.7 19.9Z" fill="white"/>
<path d="M206.3 22.3L216 29.4L214.4 31.6L207.5 26.5L205.7 29L209 31.4C210.4 32.5 211.3 33.6 211.6 34.7001C211.9 35.9001 211.7 37 210.8 38.1C209.9 39.3 208.8 39.9 207.5 40C206.2 40 204.7 39.5001 203.2 38.4001L197.5 34.2001L206.3 22.3ZM204.5 36.2001C205.2 36.7001 205.8 37 206.4 37C207 37 207.5 36.7001 207.9 36.2001C208.7 35.2001 208.3 34.1 206.9 33L204.1 31L201.7 34.2001L204.5 36.2001Z" fill="white"/>
<path d="M230.3 42.7L219.9 53.2999L217.4 50.9L221.7 46.5999L216.9 41.9L212.6 46.2L210.1 43.7999L220.5 33.2L223 35.5999L218.9 39.7999L223.7 44.5L227.8 40.2999L230.3 42.7Z" fill="white"/>
<path d="M231.1 62.4001L226.9 56.9001L223.6 57.8L221.5 55L237.3 51.3L239.4 54L231.6 68.3001L229.4 65.4001L231.1 62.4001ZM232.6 60L235.7 54.7001L229.8 56.3L232.6 60Z" fill="white"/>
<path d="M251.7 73.9001L238.7 81.1001L237.1 78.1001L240.6 76.2001L239.1 73.5001L234.4 73.1001L232.6 69.9001L238 70.4001C237.9 69.3001 238 68.4001 238.5 67.5001C239 66.6001 239.7 65.9001 240.7 65.4001C241.7 64.8001 242.7 64.6001 243.7 64.7001C244.7 64.8001 245.6 65.1001 246.4 65.7001C247.3 66.3001 248 67.2001 248.6 68.3001L251.7 73.9001ZM244.5 68.1001C243.9 67.9001 243.1 68.0001 242.4 68.4001C241.6 68.8001 241.2 69.4001 241 70.0001C240.8 70.7001 241 71.4001 241.4 72.2001L242.9 74.8001L247.6 72.2001L246.2 69.6001C245.7 68.9001 245.1 68.3001 244.5 68.1001Z" fill="white"/>
<path d="M250.5 95L249.8 92.7L244.1 94.5L243.1 91.2L257.2 86.7L258.2 90L252.5 91.8L253.2 94.1L260.1 96L261.2 99.5L252.9 97L247.1 104.1L245.9 100.4L250.5 95Z" fill="white"/>
<path d="M248.801 108.6C249.201 107.3 250.001 106.2 251.001 105.3C252.001 104.4 253.301 103.9 254.701 103.6C256.101 103.3 257.501 103.5 258.801 104C260.101 104.5 261.101 105.3 262.001 106.4C262.901 107.5 263.401 108.8 263.701 110.3C264.001 111.8 263.901 113.2 263.401 114.6C263.001 115.9 262.201 117 261.201 117.9C260.201 118.8 258.901 119.4 257.501 119.6C256.101 119.8 254.701 119.7 253.401 119.2C252.101 118.7 251.101 117.9 250.201 116.8C249.301 115.7 248.801 114.4 248.501 112.9C248.201 111.4 248.301 110 248.801 108.6ZM252.401 114.7C252.901 115.3 253.601 115.8 254.301 116.1C255.101 116.4 255.901 116.4 256.801 116.3C257.701 116.1 258.501 115.8 259.101 115.3C259.701 114.8 260.201 114.1 260.501 113.4C260.801 112.6 260.801 111.8 260.701 111C260.601 110.1 260.201 109.4 259.701 108.8C259.201 108.2 258.501 107.7 257.801 107.4C257.001 107.1 256.201 107.1 255.301 107.2C254.401 107.4 253.601 107.7 253.001 108.2C252.401 108.7 251.901 109.4 251.601 110.1C251.301 110.9 251.301 111.7 251.401 112.5C251.501 113.3 251.901 114 252.401 114.7Z" fill="white"/>
<path d="M250.501 137.2L259.401 137L252.001 132.8V131.3L259.101 126.8L250.401 126.9L250.301 123.7L265.101 123.5V126.3L256.001 132L265.301 137.3V140.1L250.501 140.4V137.2Z" fill="white"/>
<path d="M262.7 159.8L248 157.5L248.5 154.1L260.4 155.9L261.4 149.3L249.5 147.5L250 144.1L264.7 146.4L262.7 159.8Z" fill="white"/>
<path d="M247.1 172L249.1 165.4L246.5 163.2L247.5 159.8L259.7 170.5L258.7 173.7L242.6 175.6L243.7 172.2L247.1 172ZM249.9 171.7L256 171.1L251.3 167.2L249.9 171.7Z" fill="white"/>
<path d="M249.099 196.5L235.699 190L237.199 186.9L242.699 189.6L245.599 183.5L240.099 180.8L241.599 177.7L254.999 184.2L253.499 187.3L248.199 184.8L245.299 190.9L250.599 193.4L249.099 196.5Z" fill="white"/>
<path d="M246.1 201.7L244.2 204.5L236.2 199L240.2 210.3L238.4 213L226.1 204.6L228 201.8L236 207.2L232 195.9L233.8 193.2L246.1 201.7Z" fill="white"/>
<path d="M226.6 226.5L215.6 216.5L217.9 214L220.8 216.7L222.9 214.4L221.8 209.8L224.2 207.1L225.4 212.4C226.4 211.9 227.4 211.8 228.3 211.9C229.2 212 230.2 212.5 231 213.3C231.8 214.1 232.4 214.9 232.7 215.9C233 216.8 232.9 217.8 232.6 218.8C232.3 219.8 231.7 220.8 230.8 221.8L226.6 226.5ZM229.8 217.9C229.8 217.2 229.5 216.6 228.8 216C228.2 215.4 227.5 215.2 226.8 215.2C226.1 215.3 225.5 215.6 224.8 216.3L222.8 218.5L226.8 222.1L228.8 219.9C229.4 219.2 229.7 218.5 229.8 217.9Z" fill="white"/>
<path d="M205.7 234.2V239.3L203.3 241L203.2 235.9L198.4 234.2L200.8 232.5L205.7 234.2ZM209.6 231.4V236.5L207.2 238.2L207.1 233.1L202.3 231.4L204.7 229.7L209.6 231.4Z" fill="white"/>
<path d="M189.799 252.6L189.699 239.3C189.699 238 189.899 236.9 190.399 236C190.899 235.1 191.499 234.4 192.399 233.9C193.099 233.5 193.899 233.3 194.799 233.2L195.299 235.9C194.699 236 194.199 236.2 193.899 236.4C193.499 236.6 193.199 236.9 192.999 237.2C192.799 237.5 192.699 238 192.599 238.5V238.7L202.999 245.4L199.799 247.2L192.499 242.1L192.799 251L189.799 252.6Z" fill="white"/>
<path d="M173.1 259.2L167.9 245.3L171.1 244.1L175.3 255.4L181.6 253L177.4 241.7L180.6 240.5L185.8 254.4L173.1 259.2Z" fill="white"/>
<path d="M161.401 247.7C162.701 248.1 163.901 248.8 164.801 249.7C165.701 250.7 166.401 251.9 166.701 253.3C167.001 254.7 167.001 256.1 166.501 257.4C166.101 258.7 165.301 259.8 164.301 260.7C163.201 261.6 162.001 262.2 160.501 262.6C159.201 262.9 158.101 262.9 156.901 262.7C155.701 262.5 154.801 262 153.901 261.4L155.601 258.9C156.801 259.8 158.201 260.1 159.601 259.8C160.501 259.6 161.301 259.2 161.901 258.7C162.501 258.2 162.901 257.5 163.201 256.7C163.401 255.9 163.501 255.1 163.301 254.2C163.101 253.3 162.701 252.5 162.201 251.9C161.701 251.3 161.001 250.9 160.201 250.6C159.401 250.3 158.601 250.3 157.701 250.5C156.301 250.8 155.201 251.7 154.401 253L151.801 251.5C152.301 250.5 153.001 249.7 153.901 249C154.801 248.3 155.901 247.9 157.201 247.6C158.701 247.3 160.101 247.3 161.401 247.7Z" fill="white"/>
<path d="M143.6 255.9L146 255.7L145.5 249.7L148.9 249.4L150.2 264.2L146.8 264.5L146.3 258.5L143.8 258.7L140.4 265L136.8 265.3L141 257.7L135.4 250.5L139.3 250.2L143.6 255.9Z" fill="white"/>
<path d="M129.5 253.5L126.5 257.5L129.3 261.7L126.3 261.6L123.4 257.4L126.5 253.4L129.5 253.5ZM134.3 253.7L131.3 257.7L134.1 261.9L131.1 261.8L128.2 257.6L131.3 253.6L134.3 253.7Z" fill="white"/>
<path d="M94.2996 256.9L98.8996 258.1L101.9 246.4L105.2 247.2L102.2 258.9L106.8 260.1L106.1 262.8L93.5996 259.6L94.2996 256.9Z" fill="white"/>
<path d="M80.5996 254C79.8996 253.2 79.3996 252.4 79.1996 251.4C78.9996 250.5 79.0996 249.5 79.4996 248.4C79.8996 247.4 80.4996 246.6 81.2996 246C82.0996 245.4 82.9996 245.1 84.0996 245.1C85.1996 245.1 86.2996 245.3 87.4996 245.8L90.2996 246.9L91.7996 243.1L94.9996 244.4L89.5996 258.2L83.5996 255.8C82.2996 255.4 81.2996 254.7 80.5996 254ZM84.1996 248.3C83.4996 248.5 83.0996 249 82.7996 249.8C82.4996 250.6 82.4996 251.3 82.7996 251.9C83.0996 252.5 83.7996 253 84.6996 253.4L87.2996 254.4L89.1996 249.6L86.5996 248.6C85.5996 248.1 84.7996 248.1 84.1996 248.3Z" fill="white"/>
<path d="M61.8008 245L73.0008 237.8C74.1008 237.1 75.1008 236.7 76.2008 236.6C77.2008 236.5 78.2008 236.7 79.1008 237.2C79.8008 237.6 80.4008 238.1 81.0008 238.8L79.0008 240.7C78.6008 240.3 78.2008 239.9 77.8008 239.7C77.4008 239.5 77.0008 239.4 76.6008 239.4C76.2008 239.4 75.8008 239.5 75.3008 239.8L75.1008 239.9L75.0008 252.3L71.8008 250.5L72.2008 241.6L64.8008 246.6L61.8008 245Z" fill="white"/>
<path d="M58.1996 242.6L48.5996 235.4L50.1996 233.2L57.0996 238.3L58.8996 235.9L55.5996 233.4C54.1996 232.3 53.2996 231.2 52.9996 230C52.6996 228.8 52.9996 227.7 53.7996 226.6C54.6996 225.4 55.7996 224.8 57.0996 224.8C58.3996 224.8 59.8996 225.3 61.3996 226.5L66.9996 230.7L58.1996 242.6ZM60.0996 228.6C59.3996 228.1 58.7996 227.8 58.1996 227.8C57.5996 227.8 57.0996 228.1 56.6996 228.6C55.8996 229.6 56.2996 230.7 57.6996 231.8L60.4996 233.9L62.8996 230.7L60.0996 228.6Z" fill="white"/>
<path d="M34.4004 221.9L44.9004 211.4L47.3004 213.8L43.0004 218.1L47.8004 222.9L52.1004 218.6L54.5004 221L44.0004 231.5L41.6004 229.1L45.7004 225L40.9004 220.2L36.8004 224.3L34.4004 221.9Z" fill="white"/>
<path d="M33.7004 202.2L37.8004 207.7L41.1004 206.9L43.2004 209.7L27.4004 213.3L25.4004 210.6L33.3004 196.4L35.5004 199.3L33.7004 202.2ZM32.3004 204.7L29.2004 210L35.2004 208.5L32.3004 204.7Z" fill="white"/>
<path d="M13.3008 190.6L26.3008 183.5L27.9008 186.5L24.4008 188.4L25.9008 191.2L30.6008 191.6L32.3008 194.8L26.9008 194.2C27.0008 195.3 26.8008 196.2 26.4008 197.1C26.0008 198 25.2008 198.7 24.2008 199.2C23.2008 199.7 22.2008 200 21.2008 199.9C20.2008 199.8 19.3008 199.5 18.5008 198.9C17.7008 198.3 16.9008 197.4 16.3008 196.2L13.3008 190.6ZM20.4008 196.5C21.0008 196.7 21.8008 196.6 22.5008 196.2C23.3008 195.8 23.7008 195.3 23.9008 194.6C24.1008 193.9 23.9008 193.2 23.5008 192.3L22.1008 189.7L17.4008 192.3L18.8008 194.9C19.2008 195.7 19.8008 196.2 20.4008 196.5Z" fill="white"/>
<path d="M14.6008 169.5L15.3008 171.8L21.0008 170L22.0008 173.3L7.80078 177.7L6.80078 174.4L12.5008 172.6L11.8008 170.3L4.90078 168.3L3.80078 164.8L12.1008 167.3L18.0008 160.3L19.2008 164L14.6008 169.5Z" fill="white"/>
<path d="M16.3996 155.9C15.8996 157.2 15.1996 158.3 14.1996 159.2C13.1996 160.1 11.8996 160.6 10.4996 160.9C9.09961 161.1 7.69961 161 6.49961 160.5C5.19961 160 4.19961 159.2 3.29961 158.1C2.39961 157 1.89961 155.7 1.69961 154.1C1.49961 152.6 1.59961 151.2 1.99961 149.8C2.49961 148.5 3.19961 147.4 4.19961 146.5C5.19961 145.6 6.49961 145.1 7.89961 144.8C9.29961 144.5 10.6996 144.7 11.9996 145.2C13.2996 145.7 14.2996 146.5 15.1996 147.6C16.0996 148.7 16.5996 150 16.7996 151.5C16.9996 153.1 16.8996 154.6 16.3996 155.9ZM12.8996 149.8C12.3996 149.2 11.6996 148.7 10.9996 148.4C10.1996 148.1 9.39961 148 8.49961 148.2C7.59961 148.3 6.79961 148.7 6.19961 149.2C5.59961 149.7 5.09961 150.4 4.79961 151.1C4.49961 151.9 4.39961 152.7 4.59961 153.5C4.69961 154.4 5.09961 155.1 5.59961 155.7C6.09961 156.3 6.79961 156.8 7.49961 157.1C8.29961 157.4 9.09961 157.5 9.99961 157.3C10.8996 157.2 11.6996 156.8 12.2996 156.3C12.8996 155.8 13.3996 155.1 13.6996 154.4C13.9996 153.7 14.0996 152.8 13.8996 152C13.6996 151.2 13.3996 150.5 12.8996 149.8Z" fill="white"/>
<path d="M15.1 127.4L6.2 127.3L13.4 131.8V133.3L6.2 137.5L14.9 137.6L14.8 140.8L0 140.6V137.8L9.3 132.4L0.2 126.8V124L15 124.2L15.1 127.4Z" fill="white"/>
<path d="M3.00039 104.6L17.6004 107L17.1004 110.4L5.20039 108.5L4.10039 115L16.0004 117L15.5004 120.4L0.900391 118L3.00039 104.6Z" fill="white"/>
<path d="M18.6004 92.5999L16.5004 99.1999L19.1004 101.4L18.0004 104.8L5.90039 93.8999L6.90039 90.6999L23.1004 88.8999L22.0004 92.2999L18.6004 92.5999ZM15.8004 92.7999L9.70039 93.2999L14.4004 97.2999L15.8004 92.7999Z" fill="white"/>
<path d="M16.8008 68L30.1008 74.6L28.6008 77.7L23.1008 75L20.1008 81L25.6008 83.7L24.1008 86.8L10.8008 80.2L12.3008 77.1L17.5008 79.7L20.5008 73.7L15.3008 71.1L16.8008 68Z" fill="white"/>
<path d="M19.8008 62.8001L21.7008 60.0001L29.6008 65.5001L25.7008 54.2001L27.5008 51.6001L39.8008 60.0001L37.9008 62.8001L30.0008 57.3001L33.9008 68.6001L32.0008 71.3001L19.8008 62.8001Z" fill="white"/>
<path d="M39.5992 38.2L50.4992 48.2999L48.1992 50.7999L45.2992 48.0999L43.1992 50.4L44.2992 55L41.7992 57.7L40.5992 52.4C39.5992 52.9 38.5992 52.9999 37.6992 52.7999C36.6992 52.5999 35.7992 52.2 34.9992 51.4C34.1992 50.6 33.5992 49.7999 33.3992 48.7999C33.1992 47.9 33.1992 46.9 33.4992 45.9C33.7992 44.9 34.3992 43.9 35.2992 43L39.5992 38.2ZM36.2992 46.7999C36.2992 47.4999 36.5992 48.1 37.1992 48.7C37.7992 49.3 38.4992 49.6 39.1992 49.5C39.8992 49.5 40.4992 49.1 41.1992 48.4L43.1992 46.2L39.2992 42.5L37.2992 44.5999C36.6992 45.3999 36.2992 46.0999 36.2992 46.7999Z" fill="white"/>
<path d="M56.1992 33.7001V28.6001L58.5992 26.9001V32.0001L63.3992 33.7001L60.9992 35.4001L56.1992 33.7001ZM60.1992 30.9001V25.8001L62.5992 24.1001V29.2001L67.3992 30.9001L64.9992 32.6001L60.1992 30.9001Z" fill="white"/>
<path d="M76.1 12.6001L76.2 25.9001C76.2 27.2001 76 28.3001 75.5 29.2001C75 30.1001 74.3 30.8001 73.5 31.3001C72.8 31.7001 72 31.9001 71.1 32.0001L70.6 29.3001C71.2 29.2001 71.7 29.0001 72 28.8001C72.4 28.6001 72.7 28.3001 72.9 28.0001C73.1 27.7001 73.2 27.2001 73.3 26.7001V26.5001L63 19.7001L66.2 17.9001L73.5 23.0001L73.3 14.1001L76.1 12.6001Z" fill="white"/>
<path d="M92.7996 6.1001L97.9996 20.0001L94.7996 21.2001L90.5996 9.9001L84.2996 12.2001L88.4996 23.5001L85.2996 24.7001L80.0996 10.8001L92.7996 6.1001Z" fill="white"/>
<path d="M104.399 17.6001C103.099 17.2001 101.899 16.5001 100.999 15.5001C100.099 14.5001 99.3993 13.3001 99.0993 11.9001C98.7993 10.5001 98.7993 9.10008 99.2993 7.80008C99.7993 6.50008 100.499 5.40008 101.499 4.50008C102.599 3.60008 103.799 3.00008 105.299 2.70008C106.599 2.40008 107.699 2.40008 108.899 2.60008C110.099 2.80008 110.999 3.30008 111.899 3.90008L110.199 6.40008C108.999 5.50008 107.599 5.20008 106.199 5.50008C105.299 5.70008 104.499 6.10008 103.899 6.60008C103.299 7.10008 102.899 7.80008 102.599 8.60008C102.399 9.40008 102.299 10.2001 102.499 11.1001C102.699 12.0001 103.099 12.8001 103.599 13.4001C104.099 14.0001 104.799 14.4001 105.599 14.7001C106.399 15.0001 107.199 15.0001 108.099 14.8001C109.599 14.5001 110.599 13.6001 111.399 12.3001L113.999 13.8001C113.499 14.8001 112.799 15.6001 111.899 16.3001C110.999 17.0001 109.899 17.4001 108.599 17.7001C107.199 18.0001 105.799 18.0001 104.399 17.6001Z" fill="white"/>
<path d="M122.3 9.5L120 9.6L120.5 15.6L117.1 15.9L115.9 1.1L119.3 0.8L119.8 6.8L122.3 6.6L125.7 0.3L129.3 0L125 7.5L130.6 14.7L126.7 15L122.3 9.5Z" fill="white"/>
<path d="M131.6 11.8L134.7 7.8L131.9 3.5L134.9 3.6L137.7 7.9L134.6 11.9L131.6 11.8ZM136.4 11.9L139.5 7.9L136.7 3.6L139.7 3.7L142.5 8L139.4 12L136.4 11.9Z" fill="white"/>
</g>
<defs>
<clipPath id="clip0">
<rect width="265.4" height="265.4" fill="white"/>
</clipPath>
</defs>
</svg>
