<svg width="38" height="38" viewBox="0 0 38 38" fill="none" xmlns="http://www.w3.org/2000/svg">
<path d="M4.35449 6.84981C6.91537 9.65091 10.3148 11.5521 14.0466 12.2703C14.6982 10.8285 15.7323 9.59173 17.0373 8.69347C15.162 6.40822 13.7002 3.81455 12.7174 1.02881C9.45188 2.17637 6.56098 4.18859 4.35449 6.84981Z" fill="#374250"/>
<path d="M13.9359 19.1685C13.4833 18.1094 13.2479 16.9707 13.2436 15.8195C13.2436 15.7021 13.2436 15.5916 13.2436 15.4812C9.15113 14.6271 5.40329 12.585 2.47149 9.61182C0.852279 12.4557 0.0006952 15.6701 0 18.9406C0 19.348 0 19.7554 0.0415376 20.1559C5.01913 21.7372 9.8098 21.4334 13.9359 19.1685Z" fill="#374250"/>
<path d="M19.4951 24.1127C18.098 23.7046 16.8265 22.9518 15.7983 21.9238C13.2043 23.3906 10.3026 24.2324 7.32462 24.382C6.93694 24.382 6.54233 24.382 6.14772 24.382C4.28037 24.3766 2.42061 24.1447 0.609375 23.6915C1.68056 27.789 4.09265 31.4124 7.46308 33.987C13.2507 32.171 17.4321 28.753 19.4951 24.1127Z" fill="#374250"/>
<path d="M27.1936 22.6831C25.9585 23.6287 24.4895 24.2228 22.943 24.4025C20.9561 29.7263 16.8092 33.7796 11.0078 36.2309C13.6304 37.4451 16.4959 38.0476 19.3867 37.9925C22.2775 37.9375 25.1178 37.2264 27.6921 35.9133C28.9659 31.0176 28.7928 26.4947 27.1936 22.6831Z" fill="#374250"/>
<path d="M30.5993 15.6675C30.5993 15.7158 30.5993 15.7642 30.5993 15.8194C30.601 17.2673 30.2367 18.6922 29.54 19.9625C31.5698 24.0899 32.2687 28.7429 31.5408 33.2824C34.6627 30.5637 36.8091 26.9026 37.6537 22.8557C35.9928 19.8707 33.5558 17.3875 30.5993 15.6675Z" fill="#374250"/>
<path d="M19.01 3.17744e-07C17.9874 0.00147054 16.9664 0.0845973 15.957 0.248584C16.9165 2.86405 18.374 5.26977 20.2493 7.33322C22.0205 6.98186 23.8576 7.19249 25.5027 7.93553C27.1479 8.67858 28.5184 9.91675 29.4221 11.4763C32.754 12.7559 35.7055 14.8587 37.9997 17.5873C37.6449 12.8062 35.4901 8.33595 31.9678 5.07381C28.4456 1.81167 23.8166 -0.000876188 19.01 3.17744e-07Z" fill="#374250"/>
</svg>
