<svg width="19" height="23" viewBox="0 0 19 23" fill="none" xmlns="http://www.w3.org/2000/svg">
<path d="M5.80064 14.9488C3.05169 11.3898 2.30204 8.94034 2.93609 6.39214L2.93693 6.38868C3.00994 6.08634 3.12186 5.78251 3.28274 5.45971C3.45328 5.12652 3.66163 4.82342 3.89323 4.56646L4.03369 4.41062L4.6028 3.90098C4.60296 3.90084 4.60311 3.9007 4.60327 3.90057C4.95805 3.58483 5.41282 3.61836 5.64081 3.91336C5.64083 3.91339 5.64085 3.91342 5.64087 3.91344L7.68646 6.56244C7.68651 6.5625 7.68655 6.56256 7.6866 6.56262C7.93148 6.88032 7.86574 7.4223 7.49473 7.75288L7.49454 7.75304L7.04167 8.15692L7.04114 8.15738L6.11976 8.97702L5.84182 9.22427L5.96782 9.54448C5.99361 9.61003 6.01938 9.67848 6.04746 9.75308C6.05215 9.76553 6.0569 9.77816 6.06173 9.79097L6.062 9.7917L6.06612 9.80256C6.38144 10.635 6.82918 11.8169 7.80744 13.0833C8.78761 14.3533 9.79129 15.046 10.4972 15.5331C10.5738 15.5867 10.6469 15.6373 10.7177 15.6859L11.0315 15.9012L11.3403 15.6262L12.7142 14.4026L12.7143 14.4025C13.0677 14.0876 13.5229 14.1198 13.7526 14.4153C13.7527 14.4154 13.7528 14.4156 13.7529 14.4157L15.7977 17.0633C15.7978 17.0635 15.7979 17.0636 15.798 17.0637C16.0423 17.3818 15.9766 17.923 15.6079 18.2537L14.9979 18.7867L14.8664 18.8798C14.5899 19.0753 14.2778 19.2367 13.9508 19.3512C13.6455 19.4573 13.3545 19.5188 13.0565 19.5429C12.9372 19.5501 9.48306 19.7159 5.80064 14.9488ZM5.80064 14.9488L5.39485 15.2697L5.80064 14.9488ZM6.53095 9.58391C6.52625 9.57144 6.52158 9.55903 6.51693 9.54669C6.48892 9.47227 6.46182 9.40028 6.43471 9.33136L6.53095 9.58391Z" fill="#4690F7" stroke="#4690F7"/>
</svg>
