<svg width="14" height="19" viewBox="0 0 14 19" fill="none" xmlns="http://www.w3.org/2000/svg">
<path d="M7.00041 9.7939C5.25443 9.7939 3.83753 8.42607 3.83753 6.73864C3.83753 5.04963 5.25443 3.6826 7.00041 3.6826C8.74639 3.6826 10.1633 5.05042 10.1633 6.73864C10.1633 8.42528 8.74639 9.7939 7.00041 9.7939ZM7.00041 0C3.13402 0 0 3.02756 0 6.76317C0 10.2915 3.17031 14.8427 5.28742 17.0586C6.07835 17.8853 6.99959 19 6.99959 19C6.99959 19 7.98928 17.879 8.83794 17.0278C10.9534 14.9044 14 10.6412 14 6.76317C14 3.02756 10.866 0 7.00041 0Z" fill="white"/>
</svg>
