<svg width="18" height="18" viewBox="0 0 18 18" fill="none" xmlns="http://www.w3.org/2000/svg">
<g clip-path="url(#clip0)">
<path d="M11.998 13.3847C8.68752 15.8885 4.15782 15.2214 1.67051 12.1625C-0.744055 9.19313 -0.517723 4.8651 2.1978 2.17348C4.92711 -0.531816 9.24477 -0.734238 12.1883 1.69283C15.2334 4.20356 15.8668 8.71541 13.3547 12.0336C13.4582 12.1198 13.5757 12.2031 13.6763 12.3034C14.9994 13.6229 16.3207 14.9443 17.6412 16.2664C18.0781 16.7038 18.1186 17.2593 17.7488 17.6803C17.3735 18.1075 16.7385 18.1081 16.294 17.673C15.88 17.2676 15.474 16.8541 15.0643 16.4443C14.0885 15.468 13.1128 14.4918 12.1368 13.5158C12.0913 13.4704 12.0434 13.4274 11.998 13.3847ZM7.45224 1.94019C4.41404 1.94617 1.93333 4.43169 1.93962 7.46348C1.94591 10.5027 4.42889 12.9822 7.46169 12.9779C10.4972 12.9736 12.9817 10.4844 12.9752 7.45391C12.9688 4.41575 10.4831 1.93421 7.45224 1.94019Z" fill="white"/>
</g>
<defs>
<clipPath id="clip0">
<rect width="18" height="18" fill="white" transform="matrix(1 0 0 -1 0 18)"/>
</clipPath>
</defs>
</svg>
