<svg width="43" height="43" viewBox="0 0 43 43" fill="none" xmlns="http://www.w3.org/2000/svg">
<g clip-path="url(#clip0)" filter="url(#filter0_d)">
<path d="M14.999 15.114C15.006 15.0528 15.0737 15.0254 15.1284 15.0538C15.3442 15.1657 15.5593 15.279 15.7767 15.3877C19.7986 17.3987 23.821 19.4091 27.8439 21.419C27.8513 21.4227 27.8586 21.4264 27.866 21.4302C27.9228 21.4589 27.9238 21.5403 27.8675 21.5701C23.629 23.6878 19.3903 25.8057 15.1515 27.9238C15.1385 27.9302 15.1259 27.9372 15.1135 27.9445C15.0664 27.9721 15.006 27.9525 14.999 27.8984C14.999 27.3827 14.999 26.8669 14.999 26.3511C14.999 22.6055 14.999 18.8598 14.999 15.114Z" fill="#0278ED"/>
</g>
<defs>
<filter id="filter0_d" x="0" y="0" width="43" height="43" filterUnits="userSpaceOnUse" color-interpolation-filters="sRGB">
<feFlood flood-opacity="0" result="BackgroundImageFix"/>
<feColorMatrix in="SourceAlpha" type="matrix" values="0 0 0 0 0 0 0 0 0 0 0 0 0 0 0 0 0 0 127 0"/>
<feOffset/>
<feGaussianBlur stdDeviation="7.5"/>
<feColorMatrix type="matrix" values="0 0 0 0 0.140958 0 0 0 0 0.292976 0 0 0 0 0.672489 0 0 0 1 0"/>
<feBlend mode="normal" in2="BackgroundImageFix" result="effect1_dropShadow"/>
<feBlend mode="normal" in="SourceGraphic" in2="effect1_dropShadow" result="shape"/>
</filter>
<clipPath id="clip0">
<rect width="13" height="13" fill="white" transform="matrix(-1 0 0 1 28 15)"/>
</clipPath>
</defs>
</svg>
