<svg width="20" height="20" viewBox="0 0 20 20" fill="none" xmlns="http://www.w3.org/2000/svg">
<path d="M9.99117 19.9849C8.01033 19.9849 6.0288 20.0192 4.0489 19.9757C1.88535 19.9281 0.100909 18.1571 0.0320292 15.9948C-0.0207817 14.3368 0.0081609 12.676 0.00595262 11.0164C0.00313353 8.86346 0.0113089 6.71038 0.00280464 4.55735C-0.000719226 3.67149 0.136289 2.82637 0.616426 2.06473C1.44275 0.754006 2.63997 0.0437213 4.1821 0.0193842C6.45997 -0.0165575 8.73878 0.00806141 11.0172 0.0103166C11.4135 0.0106924 11.703 0.292166 11.7064 0.660839C11.71 1.03614 11.4134 1.32306 11.0043 1.32348C8.74931 1.3256 6.49441 1.32099 4.23947 1.32574C3.389 1.32752 2.67074 1.65119 2.09321 2.27484C1.55105 2.86024 1.31641 3.56042 1.31993 4.35434C1.32646 5.81837 1.32157 7.28249 1.32139 8.74656C1.3211 11.017 1.32275 13.2875 1.3189 15.558C1.31805 16.0652 1.37049 16.5602 1.60724 17.0162C2.15997 18.0809 3.03281 18.6649 4.23952 18.674C6.41604 18.6904 8.59276 18.6813 10.7694 18.6818C12.4214 18.6821 14.0735 18.6905 15.7255 18.6772C17.2498 18.6648 18.4092 17.6563 18.6532 16.1556C18.6757 16.0176 18.6776 15.875 18.6777 15.7345C18.6793 13.5423 18.679 11.3502 18.6792 9.15794C18.6792 9.10316 18.6782 9.04829 18.6796 8.99355C18.689 8.58828 18.9763 8.28975 19.3499 8.29628C19.7146 8.30262 19.9932 8.59744 19.9944 8.99289C19.9977 10.0968 19.9965 11.2008 19.9963 12.3047C19.996 13.4634 20.0078 14.6223 19.9908 15.7808C19.9622 17.728 18.6853 19.3832 16.8355 19.8473C16.401 19.9563 15.938 19.987 15.4875 19.9908C13.6556 20.0063 11.8233 19.9973 9.99121 19.9973C9.99117 19.9932 9.99117 19.9891 9.99117 19.9849Z" fill="white"/>
<path d="M7.50143 10.6826C7.50143 10.2368 7.49847 9.79097 7.50261 9.3452C7.50486 9.10084 7.59437 8.89774 7.77352 8.71901C10.467 6.03184 13.1562 3.34039 15.8474 0.651052C15.9635 0.535098 16.0835 0.421212 16.2129 0.320763C16.7942 -0.130741 17.5431 -0.0923087 18.0684 0.422152C18.5774 0.920591 19.083 1.42274 19.5786 1.93429C20.1402 2.51387 20.1255 3.39752 19.5593 3.96272C17.371 6.14742 15.1826 8.33206 12.9944 10.5169C12.4183 11.0922 11.8521 11.678 11.2606 12.2369C11.1194 12.3704 10.8999 12.4749 10.7078 12.4914C9.85035 12.5654 8.99001 12.6067 8.13028 12.6516C7.6538 12.6765 7.382 12.402 7.39393 11.9261C7.39919 11.7148 7.40572 11.5035 7.41526 11.2923C7.42447 11.0891 7.43829 10.886 7.45008 10.6828C7.46718 10.6827 7.48428 10.6827 7.50143 10.6826ZM8.73319 11.3022C9.26468 11.2692 9.76394 11.2471 10.261 11.2012C10.3795 11.1902 10.5171 11.1263 10.6016 11.0421C13.2086 8.44449 15.8103 5.84151 18.4118 3.23829C18.5096 3.14043 18.5964 3.03171 18.6603 2.95969C18.1133 2.41149 17.5853 1.88228 17.0445 1.34015C16.9947 1.38309 16.9208 1.43952 16.8554 1.50454C16.3946 1.9629 15.9357 2.4231 15.4761 2.88264C13.3056 5.05295 11.1345 7.22285 8.96633 9.39557C8.89909 9.46294 8.8218 9.55667 8.81579 9.64274C8.77839 10.1804 8.75997 10.7194 8.73319 11.3022Z" fill="white"/>
</svg>
