<svg width="14" height="15" viewBox="0 0 14 15" fill="none" xmlns="http://www.w3.org/2000/svg">
<g clip-path="url(#clip0)">
<path d="M10.2851 0.000170509C10.411 0.0241928 10.5371 0.0457424 10.6633 0.0725909C11.4964 0.252758 12.1716 0.691166 12.6698 1.40053C13.2931 2.2883 13.4203 3.25131 13.0532 4.2818C12.872 4.79086 12.5653 5.21266 12.1974 5.59137C10.523 7.31391 8.84811 9.03622 7.1726 10.7583C6.69505 11.2507 6.12845 11.5327 5.45148 11.5418C4.78415 11.5507 4.18351 11.3624 3.73724 10.8127C3.42781 10.4329 3.31194 9.98322 3.32123 9.49889C3.32776 9.15409 3.38655 8.81778 3.53886 8.50266C3.67638 8.22005 3.87133 7.98406 4.08483 7.76327C4.54325 7.28848 5.00476 6.81568 5.46936 6.34489C5.95872 5.8449 6.44854 5.34526 6.93881 4.84597C7.42496 4.34821 7.91283 3.85081 8.39417 3.34952C8.62658 3.10788 8.97864 3.08386 9.20969 3.30466C9.44073 3.52545 9.45895 3.88932 9.22516 4.14014C8.90576 4.48281 8.57363 4.81347 8.24667 5.14872C7.58197 5.83053 6.91669 6.51211 6.25084 7.19345C5.80022 7.65505 5.34914 8.11654 4.8976 8.57791C4.66415 8.81495 4.50635 9.08662 4.46165 9.42823C4.4063 9.84933 4.65797 10.2128 5.06401 10.3259C5.56941 10.4672 5.99574 10.3146 6.35915 9.93976C6.89595 9.38631 7.4339 8.83403 7.973 8.28293C8.46144 7.78105 8.94942 7.27894 9.43694 6.77659C9.92516 6.27459 10.4178 5.77719 10.9012 5.27025C11.1966 4.96043 11.5098 4.6605 11.7608 4.31395C12.3109 3.55088 12.2517 2.6398 11.636 1.93362C11.0415 1.25286 10.2972 1.0356 9.43901 1.2458C9.03641 1.34401 8.70394 1.57681 8.41273 1.87674C7.31826 3.00343 6.22334 4.1293 5.12796 5.25435C4.2494 6.15731 3.3712 7.06062 2.49333 7.96428C2.27673 8.18755 2.05635 8.40763 1.85556 8.64503C1.42442 9.15551 1.1951 9.75713 1.1425 10.4287C1.08092 11.1356 1.26057 11.8425 1.65065 12.4282C2.06597 13.0641 2.63257 13.5021 3.35423 13.7053C4.37914 13.9939 5.32118 13.7999 6.15011 13.1185C6.45129 12.8712 6.71018 12.5684 6.98488 12.2872C7.52077 11.738 8.05528 11.1874 8.58842 10.6354L10.3075 8.86406L12.0386 7.07651C12.3593 6.74621 12.6811 6.41696 13.0012 6.08383C13.1645 5.9132 13.355 5.84184 13.5826 5.90013C13.6804 5.92217 13.7699 5.97272 13.8404 6.04572C13.9109 6.11872 13.9594 6.21107 13.9801 6.31169C14.0426 6.57028 13.9395 6.77518 13.7628 6.9564C12.994 7.74467 12.2269 8.53458 11.4613 9.32614C10.7572 10.0506 10.0525 10.7743 9.34721 11.4973C8.62349 12.2431 7.90595 12.9952 7.17776 13.736C6.45576 14.4708 5.58144 14.8795 4.57064 14.9809C4.548 14.9849 4.5257 14.9907 4.50394 14.9982H3.89711C3.75202 14.9739 3.60694 14.9505 3.46219 14.9248C2.59785 14.7711 1.85762 14.3666 1.23567 13.7371C0.881133 13.3777 0.593765 12.9545 0.387829 12.4886C0.00738542 11.6495 -0.0988632 10.7065 0.0849311 9.80022C0.256837 8.92341 0.672161 8.17942 1.28827 7.54813C3.41257 5.3701 5.53514 3.19067 7.656 1.00982C8.13493 0.518417 8.70531 0.197295 9.37506 0.0669385C9.48508 0.0457423 9.59475 0.0224262 9.70477 -0.000183105L10.2851 0.000170509Z" fill="white"/>
</g>
<defs>
<clipPath id="clip0">
<rect width="14" height="15" fill="white"/>
</clipPath>
</defs>
</svg>
