<svg width="21" height="21" viewBox="0 0 21 21" fill="none" xmlns="http://www.w3.org/2000/svg">
<path d="M10.4907 20.9842C8.41085 20.9842 6.33023 21.0202 4.25135 20.9744C1.97961 20.9245 0.105954 19.065 0.0336306 16.7945C-0.0218208 15.0536 0.00856895 13.3098 0.00625025 11.5673C0.0032902 9.30663 0.0118743 7.0459 0.00294487 4.78522C-0.000755187 3.85506 0.143103 2.96768 0.647248 2.16797C1.51489 0.791706 2.77197 0.0459073 4.39121 0.0203535C6.78297 -0.0173854 9.17572 0.00846448 11.568 0.0108324C11.9842 0.0112271 12.2881 0.306774 12.2918 0.693881C12.2955 1.08794 11.9841 1.38921 11.5545 1.38966C9.18677 1.39188 6.81914 1.38704 4.45145 1.39203C3.55845 1.3939 2.80428 1.73375 2.19787 2.38858C1.6286 3.00325 1.38223 3.73844 1.38593 4.57205C1.39278 6.10928 1.38765 7.64661 1.38746 9.18389C1.38716 11.5679 1.38889 13.9519 1.38484 16.3359C1.38395 16.8684 1.43901 17.3882 1.6876 17.867C2.26797 18.9849 3.18445 19.5982 4.4515 19.6077C6.73685 19.6249 9.02239 19.6154 11.3078 19.6158C13.0425 19.6162 14.7772 19.6251 16.5118 19.611C18.1122 19.598 19.3296 18.5391 19.5859 16.9634C19.6094 16.8184 19.6115 16.6688 19.6116 16.5213C19.6133 14.2194 19.613 11.9177 19.6132 9.61584C19.6132 9.55832 19.6121 9.5007 19.6135 9.44323C19.6235 9.01769 19.9251 8.70424 20.3174 8.71109C20.7004 8.71775 20.9928 9.02731 20.9941 9.44254C20.9975 10.6016 20.9964 11.7608 20.9961 12.9199C20.9958 14.1366 21.0082 15.3534 20.9903 16.5699C20.9603 18.6144 19.6195 20.3524 17.6773 20.8396C17.2211 20.9541 16.7349 20.9864 16.2619 20.9904C14.3383 21.0066 12.4145 20.9971 10.4908 20.9971C10.4907 20.9928 10.4907 20.9885 10.4907 20.9842Z" fill="white"/>
<path d="M7.87597 11.2169C7.87597 10.7488 7.87286 10.2806 7.8772 9.81258C7.87957 9.55601 7.97355 9.34274 8.16166 9.15509C10.9898 6.33355 13.8134 3.50753 16.6393 0.683726C16.7611 0.561975 16.8872 0.442395 17.023 0.336923C17.6334 -0.137155 18.4197 -0.096802 18.9713 0.443382C19.5057 0.966743 20.0366 1.494 20.557 2.03113C21.1466 2.63968 21.1312 3.56752 20.5368 4.16098C18.239 6.45491 15.9412 8.74879 13.6436 11.0429C13.0387 11.6469 12.4442 12.262 11.8231 12.8489C11.6748 12.9891 11.4444 13.0987 11.2426 13.1161C10.3423 13.1938 9.43897 13.2371 8.53625 13.2843C8.03596 13.3105 7.75056 13.0222 7.76309 12.5225C7.76862 12.3006 7.77547 12.0788 7.78549 11.8571C7.79516 11.6436 7.80966 11.4304 7.82205 11.2171C7.84 11.217 7.85796 11.2169 7.87597 11.2169ZM9.16931 11.8674C9.72738 11.8328 10.2516 11.8096 10.7735 11.7613C10.898 11.7498 11.0424 11.6827 11.1311 11.5943C13.8685 8.86684 16.6003 6.13371 19.3318 3.40033C19.4345 3.29757 19.5257 3.18342 19.5928 3.10779C19.0185 2.53219 18.464 1.97652 17.8962 1.40728C17.8439 1.45237 17.7663 1.51161 17.6976 1.57989C17.2138 2.06117 16.7319 2.54437 16.2494 3.02689C13.9703 5.30572 11.6907 7.58411 9.41411 9.86547C9.34351 9.93621 9.26235 10.0346 9.25604 10.125C9.21677 10.6896 9.19743 11.2555 9.16931 11.8674Z" fill="white"/>
</svg>
