<svg width="8" height="14" viewBox="0 0 8 14" fill="none" xmlns="http://www.w3.org/2000/svg">
<path d="M7.99373 0V2.4382H5.86337C5.70502 2.42452 5.54712 2.46882 5.42072 2.56238C5.29431 2.65594 5.20854 2.792 5.18026 2.94382C5.17045 3.01842 5.17045 3.09394 5.18026 3.16854C5.18026 3.7191 5.18026 4.29213 5.18026 4.85393H7.99373V7.10112H5.14553V13.9663H2.44785V7.14607H0.00488281V4.89888H2.43627C2.43627 4.8427 2.43627 4.79775 2.43627 4.75281C2.43627 4.21348 2.43627 3.62921 2.43627 3.13483C2.46633 2.5634 2.64577 2.00881 2.95771 1.52328C3.26964 1.03775 3.7038 0.637263 4.21929 0.359551C4.57542 0.16513 4.97008 0.046401 5.37709 0.011236H5.48129L7.99373 0Z" fill="#202730"/>
</svg>
