<svg width="14" height="15" viewBox="0 0 14 15" fill="none" xmlns="http://www.w3.org/2000/svg">
<path d="M13.3568 14.953C12.4918 14.953 11.6579 14.9506 10.824 14.953C7.86361 14.9624 4.90283 14.9774 1.94248 14.9798C1.38233 14.9798 0.822189 14.9299 0.262043 14.9047C0.100737 14.8974 -0.00328983 14.8482 7.94722e-05 14.6659C0.0261915 13.2227 0.230034 11.8194 1.0951 10.5924C1.62787 9.83733 2.37122 9.31134 3.23208 8.93767C3.34668 8.88633 3.47178 8.86051 3.59812 8.86213C3.72447 8.86375 3.84881 8.89276 3.96196 8.94701C4.72005 9.28819 5.49288 9.61109 6.23623 9.98721C6.57611 10.1594 6.83134 10.1598 7.17037 9.98721C7.88635 9.62165 8.63349 9.31419 9.36294 8.97179C9.72851 8.8012 10.0642 8.86578 10.4036 9.03596C11.7838 9.72645 12.688 10.7768 13.0755 12.2471C13.3063 13.1297 13.3172 14.0229 13.3568 14.953Z" fill="#E5E5E5"/>
<path d="M6.67903 7.79111C8.90992 7.79111 10.7184 6.04701 10.7184 3.89555C10.7184 1.7441 8.90992 0 6.67903 0C4.44814 0 2.63965 1.7441 2.63965 3.89555C2.63965 6.04701 4.44814 7.79111 6.67903 7.79111Z" fill="#E5E5E5"/>
</svg>
