<svg width="16" height="19" viewBox="0 0 16 19" fill="none" xmlns="http://www.w3.org/2000/svg">
<path d="M2.61371 3.3191L2.73472 3.20191L3.23767 2.81867C3.54126 2.58903 3.9611 2.64879 4.16692 2.90039C4.16694 2.90042 4.16696 2.90044 4.16699 2.90047L6.09153 5.25493C6.09154 5.25494 6.09155 5.25495 6.09155 5.25496C6.28527 5.49222 6.25445 5.86083 5.96369 6.08113L5.9635 6.08127L5.56102 6.38653L5.56049 6.38693L4.7415 7.00632L4.4274 7.24388L4.58726 7.60486C4.61199 7.6607 4.63677 7.71895 4.66414 7.78327C4.66869 7.79397 4.67332 7.80484 4.67803 7.81589L4.67836 7.81668L4.68229 7.82586C4.99012 8.54526 5.42956 9.57225 6.35673 10.7061C7.28333 11.8403 8.21676 12.4912 8.86984 12.9467L8.8699 12.9467C8.87027 12.947 8.87064 12.9472 8.87101 12.9475C8.94203 12.9976 9.00974 13.045 9.07528 13.0905L9.36529 13.2918L9.64742 13.0781L10.8686 12.1533L10.8688 12.1532C11.1711 11.9241 11.5914 11.9827 11.7989 12.2351C11.799 12.2352 11.799 12.2353 11.7991 12.2354L13.7228 14.5885C13.7228 14.5885 13.7228 14.5885 13.7228 14.5886C13.9162 14.826 13.8854 15.1941 13.597 15.4147L13.0572 15.8147L12.9421 15.8817C12.699 16.0234 12.421 16.1355 12.1266 16.2081C11.8516 16.2752 11.5876 16.3063 11.3156 16.3055C11.2076 16.3031 8.06732 16.2006 4.60816 11.97C2.01944 8.80368 1.31355 6.74376 1.81464 4.72346L1.81556 4.71966C1.87197 4.48436 1.96239 4.24861 2.09682 3.99841C2.23879 3.74202 2.41509 3.51146 2.61371 3.3191Z" fill="#244BAB" stroke="#244BAB"/>
</svg>
